<?xml version="1.0" encoding="UTF-8"?>
<svg id="katman_2" data-name="katman 2" xmlns="http://www.w3.org/2000/svg" viewBox="0 0 186.65 104.44">
  <g id="Layer_1" data-name="Layer 1">
    <g>
      <path d="M60.56,19.26c5.28-3.68,9.92-6.44,14.13-3.94,6.23,3.7,11.51,.87,17.25-.19,3.51-.65,7.14-.8,10.73-.89,2.03-.05,2.66,1.77,2.63,3.39-.01,.79-.94,1.85-1.73,2.3-1.57,.89-2.02-.89-2.72-1.65-2.11-2.32-4.82-1.68-7.02-.98-7.67,2.45-15.27,2.26-23.09,.87-2.72-.48-5.72,.56-10.19,1.09Z"/>
      <path d="M101.74,83.22c2.17,2.23,4.08,.29,5.83-.17,4.64-1.21,9.03,.13,13.5,.66,.99,.12,1.99,.13,2.98,.27,.89,.13,2.58-1.39,2.5,.71-.06,1.6-1.83,2.06-3.27,1.94-6.09-.51-12.07,.57-18.08,1.21-1.67,.18-3.18-.24-4.24-1.39-1-1.07,.28-2.03,.77-3.22Z"/>
      <path d="M155.66,97.66c-4.2,3.88-8.35,2.01-12.09,2.37-4.3,.42-8.64,.42-12.96,.54-.87,.02-2.01,.48-2.25-1.15-.23-1.6,.96-1.65,1.84-2.07,6.85-3.29,13.61,.23,20.42,.3,1.34,.02,2.68,0,5.04,0Z"/>
      <path d="M78.19,96.77c6.4-.19,11.09-.18,15.58,1.65,.65,.27,1.62,.18,1.31,1.14-.15,.47-1.12,1.08-1.6,.98-7.67-1.47-15.21-.15-22.77,.89-.8,.11-1.96,.22-1.79-1.08,.11-.85,.13-1.81,1.74-1.99,3.08-.33,6.1-1.28,7.53-1.6Z"/>
      <path d="M155.51,85.38c-4.2-1.32-9.41,1.21-14.69,.35-1.06-.17-1.96-.39-1.99-1.65-.03-1.17,.77-1.31,1.76-1.47,4.71-.76,9.35-2.53,14.2-.35,.99,.44,3.43-.44,3.52-.18,.51,1.58,3.43-.11,2.75,1.76-.58,1.58-2.75,1.58-5.54,1.55Z"/>
      <path d="M19.34,44.46c.32,1.51,1.79,2.09,3.46,2.85-1.61,2.51-4.13,1.49-5.84,1.21-4.63-.74-9.1-.77-13.63,.5-1.18,.33-2.98,.57-3.33-1.17-.1-.52,1.47-1.77,2.44-2.03,4.69-1.27,9.39-2.83,14.33-.89,.61,.24,1.52-.26,2.56-.47Z"/>
      <path d="M94.04,84.62c-2.94,3.53-6.84,3.36-9.77,2.63-4.71-1.17-8.9,.74-13.33,.82-1.12,.02-2.56,.59-2.86-.76-.3-1.38,1.41-1.19,2.28-1.6,7.48-3.5,15.24-1.76,23.69-1.09Z"/>
      <path d="M22.51,19.94c-.1-3.18-2.3-1.89-3.92-1.98-4.27-.23-8.48-.04-12.64,1.11-1.02,.28-2.66,.95-3.02-.68-.32-1.45,1.35-1.24,2.27-1.74,4.09-2.2,8.57-2.87,13.02-3.13,1.93-.11,4.33,.97,5.83,2.29,1.52,1.34,.73,3.16-1.54,4.13Z"/>
      <path d="M156.46,67.93c-6.77,2.97-12.45,.81-17.48,2.5-4.46-3.34-9.68,.86-14.11-1.38,9.6-6.36,19.78-.63,31.6-1.12Z"/>
      <path d="M62.83,100.24c-1.44,2.53-3.81,2.04-5.49,2.07-5.18,.1-10.22,2.61-15.47,.88-.6-.2-1.07-.77-1.6-1.17,.55-.58,.99-1.38,1.66-1.71,6.78-3.35,13.59,.07,20.9-.08Z"/>
      <path d="M126.58,98.59c-5.37,2.85-11.16,2.26-16.73,1.73-2.62-.25-4.54,1.64-6.99,.99-1.38-.37-2.12-1.5-2-2.5,.13-1.08,1.35-1.42,2.65-1.71,7.85-1.75,15.21,3.3,23.08,1.49Z"/>
      <path d="M93.43,72.37c1.38-4.85,5.56-5.23,8.55-5.15,5.56,.14,11.09,1.68,16.57,3.51-8.29,1.07-16.67-1.65-25.12,1.64Z"/>
      <path d="M27.91,4.15c8.56-4.9,16.74-2.87,24.88,.16-.39,.96-22.65,1.2-24.88-.16Z"/>
      <path d="M182.32,99.76c-4.88,2.36-9.8,2.85-14.63,1.86-3.04-.62-5.39,2.71-8.35,.81-.59-.38-1.28-.6-1.93-.9,.45-.78,.72-1.79,1.38-2.31,1.46-1.16,21.41-.73,23.54,.55Z"/>
      <path d="M61.32,82.54c-4.65,2.51-8.78,1.66-12.64,1.75-3.55,.08-7.03-.12-10.3,1.5-1.27,.63-2.95,1.73-3.62-.02-.72-1.85,1.66-1.62,2.66-2.15,7.46-3.97,15.17-2.65,23.91-1.08Z"/>
      <path d="M50.11,47.34c-3.87,2.33-7.37-.52-10.91-.22-3.53,.3-7.02,1.12-10.51,1.85-1.03,.21-1.66-.21-1.8-.92-.14-.71,0-1.9,.48-2.23,3.59-2.45,18.88-1.42,22.73,1.52Z"/>
      <path d="M23.6,6.46c-7.15-.37-13.78-.68-20.41-1.11-1.21-.08-1.69-1.17-.98-2.2,1.7-2.47,19.5-.29,21.39,3.31Z"/>
      <path d="M78.09,72.08c-2.8-.13-6.72-.21-10.45,1.51-.59,.27-1.62-.16-2.31-.53-.22-.12-.1-1.11,.05-1.64,.25-.9,.98-.96,1.86-1.23,6.26-1.9,12.49-.84,18.75-.26,.89,.08,1.88,.02,1.81,1.14-.03,.38-1.13,.93-1.76,.97-2.26,.12-4.53,.05-7.95,.05Z"/>
      <path d="M27.26,73.22c-7.93-.09-14.67,.11-21.74,1.86,1.4-3.95,5.73-3.06,6.64-5.28,5.16-.49,9.88-.6,15.1,3.42Z"/>
      <path d="M21.5,58.94c-5.06,.55-10.12,1.16-15.2,1.58-1,.08-2.81,.84-2.91-.92-.03-.61,1.87-1.73,3.01-1.93,6.9-1.19,13.86-.97,20.82-.39,.29,.02,.55,.42,.82,.64-.28,.31-.52,.86-.84,.9-1.87,.27-3.76,.43-5.65,.63-.02-.17-.04-.35-.06-.52Z"/>
      <path d="M33.3,60.55c2.27-4.29,17.48-4.59,25.34-.81-8.29,.49-16.61-.8-25.34,.81Z"/>
      <path d="M163.79,86.49c7.87-6.21,15.04-3.07,22.11-1.99,.32,.05,.7,.67,.75,1.06,.04,.27-.43,.89-.68,.89-7.07,.05-14.14,.04-22.18,.04Z"/>
      <path d="M34.36,74.11c3.56-4.03,20.04-5.71,23.96-2.47,.29,.24,.43,.67,.64,1.02-.39,.23-.82,.72-1.16,.66-7.62-1.24-15.11-.51-22.55,1.27-.24,.06-.58-.3-.89-.48Z"/>
      <path d="M74.05,56.75c4.8,0,9.59-.02,14.39,.02,.64,0,1.87-.44,1.57,.9-.12,.52-1.1,1.13-1.74,1.2-6.99,.71-14.09-.55-21.03,1.27-.38,.1-.92-.45-1.39-.7,.31-.47,.52-1.23,.94-1.36,2.35-.74,4.76-1.33,7.14-1.96,.04,.21,.08,.42,.12,.64Z"/>
      <path d="M165.27,20.02c-7.42-2.62-15.22-.48-22.89-2.22,5.03-3.76,17.66-2.91,22.89,2.22Z"/>
      <path d="M20.76,31.71c-1.43,2.47-3.88,1.25-5.21,.9-4.15-1.07-7.95,.47-11.89,.74-.91,.06-1.98,.48-2.35-.64-.12-.35,.68-1.24,1.25-1.56,6.05-3.41,12.04-2.8,18.2,.55Z"/>
      <path d="M104.82,2.22c-2.28,2.57-4.83,1.67-7.32,1.33-1.15-.16-2.44,.27-3.51-.07-2.68-.85-7.66,2.29-7.62-1.18,.04-2.84,5.76-2.32,9.03-2.14,3.05,.16,6.04,1.28,9.42,2.07Z"/>
      <path d="M137.14,3.25c6.15-1.5,12.14-2.35,17.93,.16,1.57,.68,5.13,.17,4.45,2.22-.6,1.79-3.73,.28-5.85-.14-3.4-.68-6.97-.77-10.46-.69-2.09,.05-4.06,.3-6.07-1.55Z"/>
      <path d="M97.12,32.82c-5.78-.41-11.1-1.04-16.31,.81-.3,.11-.97-.81-1.46-1.24,.47-.53,.84-1.36,1.43-1.55,6.57-2.17,13.32,0,19.97-.71,.23-.02,.85,.95,.77,1.04-1.27,1.54-3.1,1.47-4.4,1.65Z"/>
      <path d="M11.71,83.57c2.33,.28,6.31,.75,10.28,1.27,.4,.05,.76,.45,1.13,.69-.37,.34-.7,.93-1.11,.99-5.09,.68-10.23,.41-15.36,.99-2.75,.31-2.45-2.65,.05-3.87,.91-.44,2.22-.07,5.01-.07Z"/>
      <path d="M118.25,42.51c8.91-4.48,18.44-.93,27.61-2.07-8.98,3.34-18.47,.63-27.61,2.07Z"/>
      <path d="M94.99,57.26c6.35-4.46,12.75-1.98,18.88-2.06,1.18-.02,2.37-.16,3.54-.05,1.13,.1,2.42-1.03,3.4,.37-1.03,.41-2.02,.96-3.09,1.2-6.43,1.47-13.23-1.58-19.57,1.63-.57,.29-1.71-.56-3.16-1.1Z"/>
      <path d="M133.44,4.14c-3.83,1.61-7.49-.52-11.13-.48-3.13,.04-6.33,.34-9.5,.15-.43-.03-.88-.21-1.26-.42-.07-.04,.03-.65,.22-.84,2.62-2.77,19.26-1.75,21.67,1.59Z"/>
      <path d="M38.85,29.7c3.56,.68,6.83,1.32,10.12,1.92,.83,.15,1.03,.52,.84,1.32-.21,.88-.71,.88-1.42,.71-6.22-1.5-12.4-1.37-18.56,.41-.52,.15-1.22-.35-1.84-.54,.42-.55,.75-1.45,1.29-1.59,3.23-.85,6.51-1.53,9.58-2.23Z"/>
      <path d="M120.93,15.88c4.11,0,7.59-.01,11.07,0,1.49,0,2.55,.86,3.12,2.12,.22,.49-.04,1.44-.41,1.91-.96,1.21-2.21,.48-3.24,.08-3.91-1.52-7.84-2.26-12-1.02-.42,.12-1.12-.68-1.68-1.05,1.2-.78,2.4-1.56,3.15-2.04Z"/>
      <path d="M42.82,15.77c3.05,0,4.63,.12,6.19-.03,1.82-.18,3.09,.14,2.88,2.31-.21,2.12-2.07,2.58-3.36,2.01-3.47-1.52-6.95-.8-10.45-.82-.68,0-1.35-.63-2.03-.97,.59-.38,1.13-.93,1.78-1.12,2.11-.65,4.26-1.17,5-1.37Z"/>
      <path d="M181.22,41.57c-3.39,2.11-7.17,1.75-10.81,1.42-4.88-.43-9.73-1.68-14.62-.54-1.16,.27-1.29-.42-1.78-.91,.41-.33,.77-.81,1.25-.98,6.47-2.36,12.66,.81,19,.99,2.32,.07,4.65,.01,6.97,.01Z"/>
      <path d="M55.73,33.16c6.7-5.47,13.53-1.99,20.46-1.05-1.27,1.73-18.04,2.48-20.46,1.05Z"/>
      <path d="M80.71,3.21c-.81,1.22-23.24,1.89-24.77,.8,8.13-4.08,16.45-1.45,24.77-.8Z"/>
      <path d="M121.94,56.96c.82-4.32,20.63-5.58,26.61-2.05-9.21,1.96-18.07-2.2-26.61,2.05Z"/>
      <path d="M79.59,46.2c-9.31,.64-16.99-2-24.58,1.17,2.05-4.72,14.85-5.57,24.58-1.17Z"/>
      <path d="M127.12,29.28c-5.57,2.15-10.76-.86-15.74,.64-.33,.1-.72,.1-1.06,.03-1.65-.32-4.01,2.88-4.63,.13-.51-2.28,2.95-2.26,4.74-2.53,5.45-.82,10.9-.66,16.69,1.73Z"/>
      <path d="M28.46,101.6c-1.09,2.62-16.11,3.99-17.97,1.61,5.8-3.31,11.87-2.06,17.97-1.61Z"/>
      <path d="M112.08,42.64c-7.7,4.29-15.74,.79-23.54,3.05,.98-3.41,15.22-4.87,23.54-3.05Z"/>
      <path d="M173.16,53.72c-3.35,3.42-6.71,.77-9.81,.81-2.55,.04-5.07-.08-7.49,.89-.8,.32-1.8,1.06-2.23-.35-.38-1.22,.63-1.44,1.54-1.76,4.38-1.59,7.38-1.56,18,.41Z"/>
      <path d="M155.47,28.92c-3.99,1.01-7.69,3.47-11.95,2.28-1.36-.38-2.59-.25-4.02,.24-1.2,.41-2.82-.41-4.26-.68,1.25-.61,2.47-1.71,3.74-1.76,5.49-.2,10.99-.08,16.49-.08Z"/>
      <path d="M176.3,30.05c-6.97,.72-13.01-1.34-18.86,.79,.34-2.66,14.25-3.61,18.86-.79Z"/>
    </g>
  </g>
</svg>