<?xml version="1.0" encoding="UTF-8"?>
<svg id="katman_2" data-name="katman 2" xmlns="http://www.w3.org/2000/svg" viewBox="0 0 94.91 100.54">
  <g id="Layer_1" data-name="Layer 1">
    <path d="M13.82,80.66c-4.46-.06-9.32-4.17-11.28-9.53-.6-1.63-1.13-3.28-1.6-4.95-.72-2.61,2.25-6.97,4.93-7.18,2.38-.18,4.12-1.67,6.45-2.65-6.1-.68-11.38-7.48-12.18-12.51-.21-1.3-.12-2.65-.07-3.97,.05-1.4,1.45-1.38,2.2-1.5,3.45-.55,5.83-3.32,9.1-4.18,.58-.15,1.15-.39,1.91-.65-3.86-2.59-7.83-4.99-8.99-9.93,0,0,.22-.1,.34-.16-2.67-3.07,.78-5.36,1.89-6.55,2.27-2.44,5.08-4.75,8.7-5.69,6.85-1.78,13.91-2.66,20.7-4.6,4.46-1.27,9-2.74,12.69-5.89,1.89-1.6,6.25-.36,8.65,2.24,3.2,3.47,4.47,7.71,5.32,12.23,.47,2.48-1.7,2.72-2.68,3.97-.41,.52-.87,1-1.86,2.12,3.7-1.38,6.79-2.25,9.61-3.67,2.39-1.2,5.06-1.64,7.37-3.2,1.05-.71,3.77-.82,4.7,1.66,.11,.29,.79,.41,1.23,.53,4.85,1.28,5.87,5.44,7.15,9.43,1.71,5.32-2.53,7.35-5.52,10.01-2.13,1.89-4.48,3.54-6.75,5.31,1.51,1.02,3.02,.57,4.53,.29,5.02-.94,9.39,1.39,11.74,5.93,2.06,3.96,3.07,8.07,2.76,12.52-.1,1.45-.72,2.48-2,3.2-3.99,2.24-7.92,4.57-11.93,6.78-1.14,.63-1.59,1.42-1.15,2.57,1.61,4.18-.22,6.11-4.01,7.96-5.57,2.73-10.71,6.36-16.05,9.57-4.72,2.83-9.85,4.55-15.26,5.49-.31,.05-.76,.05-.88,.24-1.73,2.8-4.01,1.82-5.86,.52-2.74-1.94-4.65-.09-6.8,.93-2.06,.98-4.09,2.04-6.15,3.02-1.77,.84-6.58-1.11-8.34-3.68-3.33-4.84-5.43-9.99-2.6-16Z"/>
  </g>
</svg>