<?xml version="1.0" encoding="UTF-8"?>
<svg id="katman_2" data-name="katman 2" xmlns="http://www.w3.org/2000/svg" viewBox="0 0 19.15 119.36">
  <g id="Layer_1" data-name="Layer 1">
    <g>
      <path d="M15.19,11.01c.05-.79-.03-1.78,1.24-1.81,1.14-.03,2.36,1.41,2.53,2.71,.16,1.24-.66,1.57-1.54,1.7-1.27,.19-2.19-.91-2.24-2.6Z"/>
      <path d="M11.82,10.59c-.77,1.38-1.84,1.89-3.05,1.29-.88-.43-1.81-1.33-1.55-2.44,.35-1.49,1.67-1.41,2.94-1.27,.52,.77,1.05,1.53,1.65,2.42Z"/>
      <path d="M8.32,45.91c.07-.57,.17-1.2,.66-1.66,.49-.46,1.07-.7,1.73-.4,.61,.27,1.22,2.38,.9,3.22-.33,.88-.91,1.57-1.94,1.34-1.27-.29-1.34-1.37-1.35-2.5Z"/>
      <path d="M7.49,88.91c-.1-1.35,.32-2.09,1.54-2.16,1-.06,2.52,1.66,2.37,2.79-.14,1.03-.7,1.78-1.87,1.79-1.36,.01-2.01-.82-2.04-2.42Zm2.75,1.42c-.71-.76-1.11-1.19-1.69-1.8-.07,1.26,.12,1.9,1.69,1.8Z"/>
      <path d="M18.53,61.43c.17,1.01,.05,1.83-1.16,1.9-.73,.04-1.93-1.5-1.95-2.4-.03-1.4,.56-2.35,1.45-2.34,1.08,0,1.66,1.03,1.65,2.84Z"/>
      <path d="M7.51,67.44c-.11-1.03,.41-1.76,1.48-1.96,.85-.16,1.96,1.01,2,1.95,.05,1.13-.73,2.11-1.73,2.15-1.07,.05-1.71-.7-1.75-2.14Z"/>
      <path d="M7.52,75.83c.04-1.65,.75-2.65,1.85-2.52,1.05,.12,1.47,.83,1.47,1.82,0,1.37-.87,2.43-2.02,2.48-.97,.05-1.33-.45-1.3-1.78Z"/>
      <path d="M10.27,29.22c1.63,1.82,1.81,3.2,.52,4.09-1.14,.78-1.76-.2-2.33-.92-.91-1.16-.52-1.82,1.81-3.16Z"/>
      <path d="M18.15,69.58c.08,.73-.13,1.13-.58,1.4-.42,.26-.83,.4-1.32,.1-.92-.57-1.5-2.55-1.06-3.56,.2-.46,.39-.87,.97-.87,.53,0,.94,.24,1.15,.69,.36,.79,.42,1.69,.84,2.24Z"/>
      <path d="M11.36,60.92c-.75,1.08-1.79,1.4-2.72,.77-.97-.66-1.15-1.84-.75-2.99,.41-1.18,1.31-1.36,2.13-.44,.31,.35,.54,.78,.76,1.2,.21,.42,.35,.87,.59,1.46Z"/>
      <path d="M16.54,72.73c1.02,.33,1.33,1.18,1.56,2.14,.21,.86,.11,1.59-.63,2.1-.59,.4-1.28,.41-1.68-.22-.47-.74-1.44-1.48-.69-2.51,.4-.54,.57-1.35,1.44-1.52Z"/>
      <path d="M18.17,53.85c-.04,.74-.05,1.59-1.16,1.68-1.07,.09-1.76-.82-1.78-2.31,0-.89-.11-1.86,1.06-2.1,.86-.17,1.86,1.3,1.88,2.73Z"/>
      <path d="M14.9,81.93c.21-.72,.29-1.65,1.43-1.75,.91-.08,1.81,1.03,1.81,2.16,0,1.07-.5,2-1.58,2.04-1.47,.05-1.17-1.44-1.65-2.45Z"/>
      <path d="M9.01,36.41c1.75,.03,1.49,1.46,1.78,2.4,.3,.99-.42,1.43-1.3,1.5-1.06,.08-1.93-.83-1.92-1.9,.02-1.16,.65-1.98,1.44-2.01Z"/>
      <path d="M15.36,40.12c-.07-1.1,.29-1.77,1.2-1.98,.99-.23,1.14,.61,1.42,1.24,.13,.29,.2,.6,.32,.9,.38,.95-.01,1.58-.88,1.85-.9,.28-1.54-.08-1.74-1.07-.08-.38-.24-.75-.31-.94Z"/>
      <path d="M11.25,54.63c-.56,.77-1.53,1.12-2.61,.31-.93-.7-.69-1.67,.76-3.72,1.42,.37,1.59,.44,1.17,1.51-.42,1.06,1.16,.75,.68,1.9Z"/>
      <path d="M3.76,2.34c-2.37,1.07-3.2,1.06-3.61-.04C-.2,1.35,.05,.53,1.03,.13c1.18-.48,2.32,.42,2.73,2.21Z"/>
      <path d="M16.43,94.85c.97,.03,1.64,.55,1.62,1.74-.01,.84-.18,1.64-1.26,1.63-.81,0-2.35-1.45-2.28-2.17,.1-1.05,.97-1.09,1.93-1.2Z"/>
      <path d="M1.66,91.03c-.7-1.23-1.47-2.28-1.26-3.58,.68-.47,1.02-.05,1.44,.15,.69,.33,1.92-.18,1.96,1.17,.04,1.28-.58,2.06-2.14,2.26Z"/>
      <path d="M18.06,87c.36,.8,.22,1.68,.26,2.52,.02,.54-.29,1.08-.91,1.24-.6,.16-1.09-.07-1.38-.62-.39-.75-1-1.48-.4-2.4,.58-.89,1.35-1.27,2.44-.75Z"/>
      <path d="M16.96,31.27c.88,.07,2.06,1.7,1.88,2.66-.13,.66-.47,1.16-1.27,1.14-.96-.02-2.11-1.43-1.99-2.51,.09-.8,.48-1.32,1.37-1.29Z"/>
      <path d="M11.5,25.47c-1.28,.68-2.2,.23-2.93-.92-.35-.55-.63-1.13-.15-1.74,.3-.38,.71-.74,1.2-.51,.57,.27,1.56,.36,1.41,1.21-.14,.78,.86,.97,.47,1.95Z"/>
      <path d="M3.79,35.87c.75,.83,1.82,1.43,1.25,2.64-.72,1.53-2.02,.86-3.29,.31-.44-1.35,.6-2.13,2.04-2.95Z"/>
      <path d="M1.29,45.1c0-.7-.12-1.33,.55-1.57,.73-.26,1.2,.11,1.51,.75,.23,.5,.5,.99,.66,1.51,.25,.78,.07,1.49-.83,1.63-.8,.13-1.63,.03-1.75-1.07-.05-.47-.11-.94-.15-1.25Z"/>
      <path d="M18.21,104.3c0,.51-.06,1.15-.94,1.19-.95,.05-2.07-1.15-2.08-2.2-.01-.91,.55-1.26,1.34-1.3,.92-.05,1.64,.9,1.68,2.32Z"/>
      <path d="M18.53,19.12c-1.84,1.79-2.43,1.82-3.39,.31-.28-.43-.49-.86-.21-1.32,.32-.53,.9-.75,1.45-.6,.83,.23,1.69,.54,2.15,1.61Z"/>
      <path d="M8.19,17.4c.13-1.01,.46-1.94,1.5-1.86,.88,.07,1.46,.89,1.65,1.76,.15,.72-.89,1.64-1.73,1.54-.86-.1-1.45-.55-1.43-1.44Z"/>
      <path d="M16.96,119.36c-1.35-2.37-.9-3.9,1.36-4.14-.5,1.39,1.5,3.27-1.36,4.14Z"/>
      <path d="M15.68,3.57c.1-.72,.64-1.31,1.4-1.18,.86,.14,2.03,.21,2.06,1.54,.03,.99-.6,1.42-1.52,1.43-1.13,.01-2-.75-1.95-1.78Z"/>
      <path d="M15.23,109.82c.1-1.18,.94-1.37,1.87-1.3,.93,.07,1.36,.53,1.23,1.59-.11,.92-.43,1.56-1.35,1.64-.85,.07-1.8-1.06-1.75-1.93Z"/>
      <path d="M8.21,2.34c.43-.82,.79-1.74,1.88-1.36,.77,.27,1.65,.69,1.68,1.74,.02,.62-.42,1-1,1.15-1.35,.35-2-.46-2.56-1.52Z"/>
      <path d="M18.14,47.12c.06,1.14-.49,1.66-1.36,1.79-.74,.11-1.48-1.05-1.41-2.12,.05-.88,.6-1.24,1.41-1.27,.93-.04,1.38,.57,1.36,1.61Z"/>
      <path d="M.98,10.58c-.67-.81-.58-1.63-.61-2.4-.02-.71,.31-1.32,1.09-1.29,.66,.03,1.21,.43,1.34,1.16,.23,1.35-.46,2.1-1.82,2.53Z"/>
      <path d="M8.5,103.66c0-.54,.31-1.33,1.13-1.24,1.15,.13,1.31,1.21,1.36,2.17,.05,.78-.26,1.42-1.13,1.53-.61,.08-1.35-1.18-1.37-2.47Z"/>
      <path d="M10.76,97.43c-.09,.73-.52,1.11-1.13,.89-.8-.29-2.09-.12-2.02-1.51,.04-.86,.51-1.52,1.52-1.38,1.18,.16,1.36,1.15,1.63,2Z"/>
      <path d="M17.55,27.34c-1.13-.5-1.94-1.1-2.26-2.17-.18-.6,.01-1.12,.54-1.43,.55-.32,1.07-.22,1.45,.31,.7,.99,1.38,1.99,.26,3.29Z"/>
      <path d="M1.6,101.16c1.26,.14,1.56,1.06,1.66,2,.08,.74-.25,1.45-1.14,1.47-1.33,.03-1.32-1.14-1.54-1.99-.2-.81,.25-1.31,1.02-1.48Z"/>
      <path d="M2.27,25.4c-.62-1.18-1.47-2.23-.14-3.21,.66-.49,1.52-.47,1.96,.51,.47,1.03,.04,1.72-1.82,2.7Z"/>
      <path d="M8.08,82.54c1.55-1.14,2.65-1.23,3.21-.32,.36,.59,.4,1.26-.27,1.67-1.49,.9-2.1-.27-2.93-1.35Z"/>
      <path d="M3.15,61.37c-.85-.26-1.12-.86-1.48-1.37-.39-.56-.61-1.19,.07-1.67,.78-.55,1.52-.34,2.08,.37,.57,.71,.38,1.43-.68,2.66Z"/>
      <path d="M2.72,17.67c-.95,.14-1.35-.54-1.8-1.03-.5-.54-.24-1.21,.1-1.73,.31-.47,.83-.75,1.42-.59,.64,.17,.75,.76,.82,1.29,.11,.77,.18,1.56-.54,2.05Z"/>
      <path d="M8.47,116.19c.12-.94,.47-1.61,1.5-1.52,.82,.07,1.39,.53,1.27,1.39-.12,.81-.54,1.55-1.54,1.52-.89-.03-1.19-.65-1.24-1.39Z"/>
      <path d="M1.5,54c-.17-1.3-.39-2.53,.74-3.62,1.2,.48,1.51,1.42,1.32,2.47-.19,1.05-1.04,1.24-2.06,1.15Z"/>
      <path d="M2.15,67.96c-1.31-.59-1.12-1.78-1.01-2.84,.08-.7,.99-.86,1.47-.33,.83,.89,.64,2.18-.47,3.18Z"/>
      <path d="M3.59,30.97c.05,.76-.32,1.31-1.06,1.24-.96-.09-1.18-.95-1.21-1.76-.03-.73,.17-1.57,1.08-1.52,1.23,.07,.76,1.36,1.19,2.03Z"/>
      <path d="M1.49,117.1c-.68,.02-1-.32-1.02-.99-.03-1.03,.49-1.62,1.47-1.79,.51-.09,.96,.16,1.09,.68,.17,.67-.88,2.05-1.53,2.1Z"/>
      <path d="M9.1,111.16q.58-2.15,2.72-.98-.54,1.7-2.72,.98Z"/>
      <path d="M1.9,72.02c.76,.08,1.26,.65,1.39,1.5,.11,.71-.48,.98-1.03,1.1-.88,.19-1.37-.29-1.43-1.14-.04-.65,.04-1.31,1.08-1.46Z"/>
      <path d="M.53,110.28c-.21-1.25-.34-2.28,.95-2.72,.53-.18,1.17-.05,1.3,.65,.31,1.63-.97,1.69-2.25,2.07Z"/>
      <path d="M2.64,83.75c-1.11-.54-1.9-.85-1.62-1.85,.22-.79,.65-1.47,1.78-1.04,.41,.88,.03,1.71-.15,2.89Z"/>
      <path d="M3.25,95.05c.06,1.32-.3,2.19-1.33,2.74-1.16-1.87-1.03-2.17,1.33-2.74Z"/>
    </g>
  </g>
</svg>