<?xml version="1.0" encoding="UTF-8"?>
<svg id="katman_2" data-name="katman 2" xmlns="http://www.w3.org/2000/svg" viewBox="0 0 129 38.34">
  <g id="Layer_1" data-name="Layer 1">
    <path d="M44.36,27.9c-3.08,4.31-7.16,7.14-11.95,9.09-7.46,3.03-13.54,.72-18.87-4.67-2.56-2.59-4.99-5.28-8-7.44C1.88,22.27,.04,18.63,0,13.96c-.02-2.2-.04-4.15,1.28-6.01,1.05-1.49,2.3-1.66,3.77-.89,4.22,2.2,7.56,5.51,10.66,8.99,4.3,4.81,6.13,3.89,11.27,.75,3.71-2.27,6.36-5.28,7.43-9.78,.73-3.07,4.63-3.54,7.59-1.52,4.37,2.98,6.98,7.35,9.46,11.79,2,3.58,4.62,6.01,8.95,5.59,2.83-.28,4.7-2.3,6.52-4.27,3.04-3.29,4.13-7.63,6.02-11.53,2.19-4.51,8.11-7.92,11.83-6.89,6.71,1.84,11.04,6.35,14.47,12.03,1.09,1.81,2.23,3.61,3.23,5.47,1.18,2.18,2.41,2.51,4.21,.73,2.62-2.6,5.67-4.64,8.52-6.94,.42-.34,.75-.93,.89-1.46,.76-3.05,2.94-4.18,5.63-2.61,5.81,3.4,7.9,9.16,7.12,15.68-.18,1.5-1.83,2.19-2.84,3.2-3.77,3.73-7.74,7.23-12.6,9.52-5.28,2.49-11.93,.5-16.68-4.32-3.15-3.2-4.03-7.34-5.7-11.16-1.15-2.64-1.84-2.92-3.95-1.03-4.9,4.41-9.69,8.96-14.8,13.12-3.36,2.74-7.36,4.87-11.8,4.8-6.65-.11-11.67-3.69-15.69-8.78-.11-.14-.23-.29-.43-.53Z"/>
  </g>
</svg>