<svg width="10" height="10" viewBox="0 0 10 10" fill="none" xmlns="http://www.w3.org/2000/svg">
<path fill-rule="evenodd" clip-rule="evenodd" d="M7.87265 9.19834C8.23877 9.56445 8.83236 9.56445 9.19848 9.19834C9.56459 8.83222 9.56459 8.23863 9.19848 7.87251L6.32593 4.99996L9.19846 2.12743C9.56458 1.76131 9.56458 1.16772 9.19846 0.801607C8.83234 0.43549 8.23875 0.43549 7.87263 0.801607L5.0001 3.67414L2.12741 0.801443C1.76129 0.435326 1.1677 0.435327 0.801584 0.801443C0.435467 1.16756 0.435467 1.76115 0.801584 2.12727L3.67428 4.99996L0.801565 7.87267C0.435448 8.23879 0.435448 8.83238 0.801565 9.1985C1.16768 9.56462 1.76127 9.56462 2.12739 9.1985L5.0001 6.32579L7.87265 9.19834Z" fill="#A7FFFA"/>
</svg>
