<svg width="20" height="21" viewBox="0 0 20 21" fill="none" xmlns="http://www.w3.org/2000/svg">
<path d="M9.58332 20.0832C14.876 20.0832 19.1667 15.7926 19.1667 10.4998C19.1667 5.20711 14.876 0.916504 9.58332 0.916504C4.29059 0.916504 -1.52588e-05 5.20711 -1.52588e-05 10.4998C-1.52588e-05 15.7926 4.29059 20.0832 9.58332 20.0832Z" fill="#A7FFFA" fill-opacity="0.4"/>
<path fill-rule="evenodd" clip-rule="evenodd" d="M7.66587 19.8913V16.8624C7.22877 17.0713 6.74491 17.2218 6.22837 17.2218C5.77805 17.2218 5.36284 17.1432 4.9705 16.9822C4.70849 16.8749 4.28769 16.4293 4.13196 16.114C4.02963 15.9067 3.96016 15.6945 3.89643 15.4998C3.75182 15.058 3.63667 14.7062 3.23349 14.7062C2.95998 14.7062 2.54244 14.5931 2.54464 14.3171C2.54646 14.09 2.89204 14.0075 3.17359 13.9874C4.07606 13.9223 4.79417 14.7876 4.85071 14.916C4.89862 15.0243 5.00874 15.2141 5.09029 15.3051C5.3522 15.5993 5.75553 15.7843 6.22837 15.7843C6.79254 15.7843 7.28081 15.5198 7.51618 15.125C7.55585 15.0586 7.60564 14.9487 7.66023 14.8282L7.66026 14.8281C7.73739 14.6578 7.82412 14.4663 7.90548 14.3468C5.52457 14.1666 3.83246 12.9016 3.83246 10.0343C3.83246 9.19288 4.11567 8.361 4.58113 7.7285C4.46919 7.07971 4.37327 5.99201 4.79081 4.76343C5.92155 4.76343 6.91856 5.36334 7.57598 5.84155C7.90682 5.77639 8.27185 5.72176 8.62423 5.72176H10.5409C10.8667 5.72176 11.2516 5.77351 11.5591 5.84155C12.2492 5.33076 13.2026 4.76343 14.3742 4.76343C14.8522 6.1693 14.6159 7.46975 14.5239 7.96808C14.9701 8.65047 15.3527 9.59538 15.3244 10.4061C15.2376 12.8892 13.6263 14.2308 11.3001 14.3487C11.4554 14.6707 11.4992 14.9362 11.4992 15.3051V19.8916C10.8801 20.0173 10.2394 20.0832 9.58333 20.0832C8.92668 20.0832 8.28536 20.0172 7.66587 19.8913Z" fill="#A7FFFA"/>
</svg>
