<svg width="12" height="13" viewBox="0 0 12 13" fill="none" xmlns="http://www.w3.org/2000/svg">
<path fill-rule="evenodd" clip-rule="evenodd" d="M8.62696 2.05176H3.86292C2.54736 2.05176 1.4809 3.11823 1.4809 4.43378V8.24502C1.4809 9.56057 2.54736 10.627 3.86292 10.627H8.6231L8.7264 10.6247C9.99364 10.5696 11.0043 9.52584 11.0061 8.2457L11.0076 4.43664L11.009 4.43282C11.009 3.117 9.94216 2.05055 8.62696 2.05176ZM8.6274 3.00449L8.71134 3.00684C9.43347 3.04806 10.0119 3.62629 10.0538 4.34876L10.0552 4.43347L10.0533 8.2447C10.0522 9.03366 9.41206 9.67343 8.62266 9.67416L3.86292 9.67416C3.07359 9.67416 2.43371 9.03428 2.43371 8.24494V4.43371C2.43371 3.64438 3.07359 3.00449 3.86292 3.00449L8.6274 3.00449Z" fill="white"/>
<g opacity="0.5">
<path fill-rule="evenodd" clip-rule="evenodd" d="M4.00246 4.57313C4.17419 4.40139 4.44443 4.38818 4.63132 4.5335L4.6762 4.57313L5.23434 5.13127C5.77016 5.66709 6.62557 5.68852 7.18695 5.19557L7.25555 5.13127L7.81369 4.57313C7.99974 4.38708 8.30138 4.38708 8.48743 4.57313C8.65917 4.74487 8.67238 5.0151 8.52706 5.20199L8.48743 5.24687L7.92929 5.80501C7.02724 6.70706 5.58171 6.73439 4.64673 5.88701L4.5606 5.80501L4.00246 5.24687C3.81641 5.06082 3.81641 4.75918 4.00246 4.57313Z" fill="white"/>
</g>
</svg>
