<svg width="15" height="13" viewBox="0 0 15 13" fill="none" xmlns="http://www.w3.org/2000/svg">
<path opacity="0.4" fill-rule="evenodd" clip-rule="evenodd" d="M0.552094 1.66675C0.552094 1.16624 0.957835 0.760498 1.45834 0.760498H13.5417C14.0422 0.760498 14.4479 1.16624 14.4479 1.66675C14.4479 2.16726 14.0422 2.573 13.5417 2.573H1.45834C0.957835 2.573 0.552094 2.16726 0.552094 1.66675Z" fill="#A7FFFA"/>
<path fill-rule="evenodd" clip-rule="evenodd" d="M0.552094 6.5C0.552094 5.99949 0.957835 5.59375 1.45834 5.59375H13.5417C14.0422 5.59375 14.4479 5.99949 14.4479 6.5C14.4479 7.00051 14.0422 7.40625 13.5417 7.40625H1.45834C0.957835 7.40625 0.552094 7.00051 0.552094 6.5Z" fill="#A7FFFA"/>
<path opacity="0.4" fill-rule="evenodd" clip-rule="evenodd" d="M0.552094 11.3333C0.552094 10.8327 0.957835 10.427 1.45834 10.427H13.5417C14.0422 10.427 14.4479 10.8327 14.4479 11.3333C14.4479 11.8338 14.0422 12.2395 13.5417 12.2395H1.45834C0.957835 12.2395 0.552094 11.8338 0.552094 11.3333Z" fill="#A7FFFA"/>
</svg>
