<svg width="48" height="48" viewBox="0 0 48 48" fill="none" xmlns="http://www.w3.org/2000/svg">
<path d="M10.7587 14.9832C10.1507 15.4491 9.65503 16.5416 9.65503 17.779C9.65503 19.0164 10.1494 20.1089 10.7587 20.5761C11.3667 20.1099 11.8621 19.0174 11.8621 17.78C11.8621 16.5425 11.3677 15.4491 10.7587 14.9832Z" fill="black"/>
<path d="M14.0691 14.9832C13.1555 15.2161 12.4138 16.3886 12.4138 17.779C12.4138 19.1694 13.1555 20.3422 14.0691 20.5752C14.9824 20.3422 15.7242 19.1694 15.7242 17.779C15.7242 16.3886 14.9824 15.2161 14.0691 14.9832Z" fill="black"/>
<path d="M18.4829 20.5748C19.7018 20.5748 20.6899 19.3231 20.6899 17.779C20.6899 16.2349 19.7018 14.9832 18.4829 14.9832C17.2639 14.9832 16.2758 16.2349 16.2758 17.779C16.2758 19.3231 17.2639 20.5748 18.4829 20.5748Z" fill="black"/>
<path d="M24 20.5748C25.5236 20.5748 26.7587 19.3231 26.7587 17.779C26.7587 16.2349 25.5236 14.9832 24 14.9832C22.4764 14.9832 21.2413 16.2349 21.2413 17.779C21.2413 19.3231 22.4764 20.5748 24 20.5748Z" fill="black"/>
<path d="M8.55168 14.9832C8.24704 15.682 8 16.6942 8 17.779C8 18.8638 8.24704 19.876 8.55168 20.5752C8.85632 19.876 9.10336 18.8638 9.10336 17.779C9.10336 16.6942 8.85632 15.682 8.55168 14.9832Z" fill="black"/>
<path d="M37.2413 20.5759C37.8493 20.1096 38.345 19.0172 38.345 17.7797C38.345 16.5423 37.8506 15.4498 37.2413 14.9839C36.6333 15.4498 36.1379 16.5423 36.1379 17.7797C36.1379 19.0172 36.6323 20.1087 37.2413 20.5759Z" fill="black"/>
<path d="M33.9309 20.5759C34.8445 20.3429 35.5862 19.1701 35.5862 17.7797C35.5862 16.3893 34.8445 15.2168 33.9309 14.9839C33.0176 15.2168 32.2758 16.3893 32.2758 17.7797C32.2758 19.1701 33.0176 20.342 33.9309 20.5759Z" fill="black"/>
<path d="M29.5171 20.5748C30.736 20.5748 31.7241 19.3231 31.7241 17.779C31.7241 16.2349 30.736 14.9832 29.5171 14.9832C28.2982 14.9832 27.3101 16.2349 27.3101 17.779C27.3101 19.3231 28.2982 20.5748 29.5171 20.5748Z" fill="black"/>
<path d="M39.4483 20.5759C39.753 19.8767 40 18.8645 40 17.7797C40 16.6949 39.753 15.6828 39.4483 14.9839C39.1437 15.6828 38.8967 16.6949 38.8967 17.7797C38.8967 18.8645 39.1437 19.8757 39.4483 20.5759Z" fill="black"/>
<path d="M10.7587 8.76196C10.1507 9.22788 9.65503 10.3204 9.65503 11.5578C9.65503 12.7952 10.1494 13.8877 10.7587 14.354C11.3667 13.8877 11.8621 12.7956 11.8621 11.5578C11.8621 10.32 11.3677 9.22788 10.7587 8.76196Z" fill="black"/>
<path d="M14.0691 8.76196C13.1555 8.99492 12.4138 10.1674 12.4138 11.5578C12.4138 12.9482 13.1555 14.121 14.0691 14.354C14.9824 14.121 15.7242 12.9485 15.7242 11.5578C15.7242 10.1671 14.9824 8.99492 14.0691 8.76196Z" fill="black"/>
<path d="M18.4829 14.3536C19.7018 14.3536 20.6899 13.1019 20.6899 11.5578C20.6899 10.0137 19.7018 8.76196 18.4829 8.76196C17.2639 8.76196 16.2758 10.0137 16.2758 11.5578C16.2758 13.1019 17.2639 14.3536 18.4829 14.3536Z" fill="black"/>
<path d="M24 14.3536C25.5236 14.3536 26.7587 13.1019 26.7587 11.5578C26.7587 10.0137 25.5236 8.76196 24 8.76196C22.4764 8.76196 21.2413 10.0137 21.2413 11.5578C21.2413 13.1019 22.4764 14.3536 24 14.3536Z" fill="black"/>
<path d="M8.55168 8.76196C8.24704 9.46084 8 10.473 8 11.5578C8 12.6426 8.24704 13.6548 8.55168 14.354C8.85632 13.6548 9.10336 12.6429 9.10336 11.5578C9.10336 10.4727 8.85632 9.46084 8.55168 8.76196Z" fill="black"/>
<path d="M37.2413 14.354C37.8493 13.8877 38.345 12.7956 38.345 11.5578C38.345 10.32 37.8506 9.22788 37.2413 8.76196C36.6333 9.22788 36.1379 10.3204 36.1379 11.5578C36.1379 12.7952 36.6323 13.888 37.2413 14.354Z" fill="black"/>
<path d="M33.9309 14.354C34.8445 14.121 35.5862 12.9485 35.5862 11.5578C35.5862 10.1671 34.8445 8.99492 33.9309 8.76196C33.0176 8.99492 32.2758 10.1674 32.2758 11.5578C32.2758 12.9482 33.0176 14.121 33.9309 14.354Z" fill="black"/>
<path d="M29.5171 14.3536C30.736 14.3536 31.7241 13.1019 31.7241 11.5578C31.7241 10.0137 30.736 8.76196 29.5171 8.76196C28.2982 8.76196 27.3101 10.0137 27.3101 11.5578C27.3101 13.1019 28.2982 14.3536 29.5171 14.3536Z" fill="black"/>
<path d="M39.4483 14.354C39.753 13.6548 40 12.6429 40 11.5578C40 10.4727 39.753 9.46084 39.4483 8.76196C39.1437 9.46084 38.8967 10.473 38.8967 11.5578C38.8967 12.6426 39.1437 13.6548 39.4483 14.354Z" fill="black"/>
<path d="M10.7587 21.2041C10.1507 21.67 9.65503 22.7625 9.65503 23.9999C9.65503 25.2374 10.1494 26.3299 10.7587 26.7958C11.3667 26.3299 11.8621 25.2374 11.8621 23.9999C11.8621 22.7625 11.3677 21.67 10.7587 21.2041Z" fill="black"/>
<path d="M14.0691 21.2041C13.1555 21.4367 12.4138 22.6095 12.4138 23.9999C12.4138 25.3903 13.1555 26.5631 14.0691 26.7958C14.9824 26.5631 15.7242 25.3903 15.7242 23.9999C15.7242 22.6095 14.9824 21.4367 14.0691 21.2041Z" fill="black"/>
<path d="M18.4829 26.7958C19.7018 26.7958 20.6899 25.544 20.6899 23.9999C20.6899 22.4558 19.7018 21.2041 18.4829 21.2041C17.2639 21.2041 16.2758 22.4558 16.2758 23.9999C16.2758 25.544 17.2639 26.7958 18.4829 26.7958Z" fill="black"/>
<path d="M24 26.7958C25.5236 26.7958 26.7587 25.544 26.7587 23.9999C26.7587 22.4558 25.5236 21.2041 24 21.2041C22.4764 21.2041 21.2413 22.4558 21.2413 23.9999C21.2413 25.544 22.4764 26.7958 24 26.7958Z" fill="black"/>
<path d="M8.55168 21.2041C8.24704 21.903 8 22.9151 8 23.9999C8 25.0847 8.24704 26.0969 8.55168 26.7958C8.85632 26.0969 9.10336 25.0847 9.10336 23.9999C9.10336 22.9151 8.85632 21.903 8.55168 21.2041Z" fill="black"/>
<path d="M37.2413 26.7958C37.8493 26.3299 38.345 25.2374 38.345 23.9999C38.345 22.7625 37.8506 21.67 37.2413 21.2041C36.6333 21.67 36.1379 22.7625 36.1379 23.9999C36.1379 25.2374 36.6323 26.3299 37.2413 26.7958Z" fill="black"/>
<path d="M33.9309 26.7958C34.8445 26.5631 35.5862 25.3903 35.5862 23.9999C35.5862 22.6095 34.8445 21.4367 33.9309 21.2041C33.0176 21.4367 32.2758 22.6095 32.2758 23.9999C32.2758 25.3903 33.0176 26.5631 33.9309 26.7958Z" fill="black"/>
<path d="M29.5171 26.7958C30.736 26.7958 31.7241 25.544 31.7241 23.9999C31.7241 22.4558 30.736 21.2041 29.5171 21.2041C28.2982 21.2041 27.3101 22.4558 27.3101 23.9999C27.3101 25.544 28.2982 26.7958 29.5171 26.7958Z" fill="black"/>
<path d="M39.4483 26.7958C39.753 26.0969 40 25.0847 40 23.9999C40 22.9151 39.753 21.903 39.4483 21.2041C39.1437 21.903 38.8967 22.9151 38.8967 23.9999C38.8967 25.0847 39.1437 26.0969 39.4483 26.7958Z" fill="black"/>
<path d="M10.7587 27.4241C10.1507 27.8903 9.65503 28.9828 9.65503 30.2202C9.65503 31.4577 10.1494 32.5502 10.7587 33.0161C11.3667 32.5502 11.8621 31.4577 11.8621 30.2202C11.8621 28.9828 11.3677 27.8913 10.7587 27.4241Z" fill="black"/>
<path d="M14.0691 27.4241C13.1555 27.657 12.4138 28.8298 12.4138 30.2202C12.4138 31.6106 13.1555 32.7831 14.0691 33.0161C14.9824 32.7831 15.7242 31.6106 15.7242 30.2202C15.7242 28.8298 14.9824 27.658 14.0691 27.4241Z" fill="black"/>
<path d="M18.4829 33.017C19.7018 33.017 20.6899 31.7652 20.6899 30.2211C20.6899 28.677 19.7018 27.4253 18.4829 27.4253C17.2639 27.4253 16.2758 28.677 16.2758 30.2211C16.2758 31.7652 17.2639 33.017 18.4829 33.017Z" fill="black"/>
<path d="M24 33.017C25.5236 33.017 26.7587 31.7652 26.7587 30.2211C26.7587 28.677 25.5236 27.4253 24 27.4253C22.4764 27.4253 21.2413 28.677 21.2413 30.2211C21.2413 31.7652 22.4764 33.017 24 33.017Z" fill="black"/>
<path d="M8.55168 27.4241C8.24704 28.1242 8 29.1364 8 30.2212C8 31.306 8.24704 32.3182 8.55168 33.017C8.85632 32.3182 9.10336 31.306 9.10336 30.2212C9.10336 29.1364 8.85632 28.1242 8.55168 27.4241Z" fill="black"/>
<path d="M37.2413 33.017C37.8493 32.5511 38.345 31.4586 38.345 30.2212C38.345 28.9838 37.8506 27.8913 37.2413 27.425C36.6333 27.8913 36.1379 28.9838 36.1379 30.2212C36.1379 31.4586 36.6323 32.5511 37.2413 33.017Z" fill="black"/>
<path d="M33.9309 33.017C34.8445 32.7841 35.5862 31.6116 35.5862 30.2212C35.5862 28.8308 34.8445 27.658 33.9309 27.425C33.0176 27.658 32.2758 28.8308 32.2758 30.2212C32.2758 31.6116 33.0176 32.7841 33.9309 33.017Z" fill="black"/>
<path d="M29.5171 33.017C30.736 33.017 31.7241 31.7652 31.7241 30.2211C31.7241 28.677 30.736 27.4253 29.5171 27.4253C28.2982 27.4253 27.3101 28.677 27.3101 30.2211C27.3101 31.7652 28.2982 33.017 29.5171 33.017Z" fill="black"/>
<path d="M39.4483 33.017C39.753 32.3182 40 31.306 40 30.2212C40 29.1364 39.753 28.1242 39.4483 27.425C39.1437 28.1242 38.8967 29.1364 38.8967 30.2212C38.8967 31.306 39.1437 32.3182 39.4483 33.017Z" fill="black"/>
<path d="M10.7587 33.646C10.1507 34.1122 9.65503 35.2044 9.65503 36.4422C9.65503 37.6799 10.1494 38.7721 10.7587 39.238C11.3667 38.7721 11.8621 37.6796 11.8621 36.4422C11.8621 35.2047 11.3677 34.1119 10.7587 33.646Z" fill="black"/>
<path d="M14.0691 33.646C13.1555 33.879 12.4138 35.0514 12.4138 36.4422C12.4138 37.8329 13.1555 39.005 14.0691 39.238C14.9824 39.005 15.7242 37.8326 15.7242 36.4422C15.7242 35.0518 14.9824 33.879 14.0691 33.646Z" fill="black"/>
<path d="M18.4829 39.2382C19.7018 39.2382 20.6899 37.9864 20.6899 36.4423C20.6899 34.8982 19.7018 33.6465 18.4829 33.6465C17.2639 33.6465 16.2758 34.8982 16.2758 36.4423C16.2758 37.9864 17.2639 39.2382 18.4829 39.2382Z" fill="black"/>
<path d="M24 39.2382C25.5236 39.2382 26.7587 37.9864 26.7587 36.4423C26.7587 34.8982 25.5236 33.6465 24 33.6465C22.4764 33.6465 21.2413 34.8982 21.2413 36.4423C21.2413 37.9864 22.4764 39.2382 24 39.2382Z" fill="black"/>
<path d="M8.55168 33.646C8.24704 34.3452 8 35.357 8 36.4422C8 37.5273 8.24704 38.5391 8.55168 39.238C8.85632 38.5391 9.10336 37.527 9.10336 36.4422C9.10336 35.3574 8.85632 34.3452 8.55168 33.646Z" fill="black"/>
<path d="M37.2413 39.238C37.8493 38.7721 38.345 37.6796 38.345 36.4422C38.345 35.2047 37.8506 34.1122 37.2413 33.646C36.6333 34.1122 36.1379 35.2044 36.1379 36.4422C36.1379 37.6799 36.6323 38.7721 37.2413 39.238Z" fill="black"/>
<path d="M33.9309 39.238C34.8445 39.005 35.5862 37.8326 35.5862 36.4422C35.5862 35.0518 34.8445 33.879 33.9309 33.646C33.0176 33.879 32.2758 35.0514 32.2758 36.4422C32.2758 37.8329 33.0176 39.005 33.9309 39.238Z" fill="black"/>
<path d="M29.5171 39.2382C30.736 39.2382 31.7241 37.9864 31.7241 36.4423C31.7241 34.8982 30.736 33.6465 29.5171 33.6465C28.2982 33.6465 27.3101 34.8982 27.3101 36.4423C27.3101 37.9864 28.2982 39.2382 29.5171 39.2382Z" fill="black"/>
<path d="M39.4483 39.238C39.753 38.5391 40 37.527 40 36.4422C40 35.3574 39.753 34.3452 39.4483 33.646C39.1437 34.3452 38.8967 35.357 38.8967 36.4422C38.8967 37.5273 39.1437 38.5391 39.4483 39.238Z" fill="black"/>
</svg>
