<svg width="95" height="34" viewBox="0 0 95 34" fill="none" xmlns="http://www.w3.org/2000/svg">
<path d="M6.52464 11.5125C6.15592 11.795 5.85532 12.4575 5.85532 13.208C5.85532 13.9584 6.15515 14.621 6.52464 14.9043C6.89337 14.6216 7.19378 13.959 7.19378 13.2086C7.19378 12.4581 6.89395 11.795 6.52464 11.5125Z" fill="#A7FFFA"/>
<path d="M8.53224 11.5125C7.97818 11.6537 7.52834 12.3648 7.52834 13.208C7.52834 14.0512 7.97818 14.7624 8.53224 14.9037C9.0861 14.7624 9.53594 14.0512 9.53594 13.208C9.53594 12.3648 9.0861 11.6537 8.53224 11.5125Z" fill="#A7FFFA"/>
<path d="M11.209 14.9035C11.9482 14.9035 12.5474 14.1444 12.5474 13.208C12.5474 12.2716 11.9482 11.5125 11.209 11.5125C10.4698 11.5125 9.87051 12.2716 9.87051 13.208C9.87051 14.1444 10.4698 14.9035 11.209 14.9035Z" fill="#A7FFFA"/>
<path d="M14.5548 14.9035C15.4788 14.9035 16.2279 14.1444 16.2279 13.208C16.2279 12.2716 15.4788 11.5125 14.5548 11.5125C13.6309 11.5125 12.8818 12.2716 12.8818 13.208C12.8818 14.1444 13.6309 14.9035 14.5548 14.9035Z" fill="#A7FFFA"/>
<path d="M5.18618 11.5125C5.00143 11.9363 4.85162 12.5501 4.85162 13.208C4.85162 13.8659 5.00143 14.4797 5.18618 14.9037C5.37093 14.4797 5.52075 13.8659 5.52075 13.208C5.52075 12.5501 5.37093 11.9363 5.18618 11.5125Z" fill="#A7FFFA"/>
<path d="M22.585 14.904C22.9538 14.6212 23.2544 13.9587 23.2544 13.2082C23.2544 12.4578 22.9545 11.7953 22.585 11.5127C22.2163 11.7953 21.9159 12.4578 21.9159 13.2082C21.9159 13.9587 22.2157 14.6206 22.585 14.904Z" fill="#A7FFFA"/>
<path d="M20.5774 14.904C21.1315 14.7627 21.5813 14.0514 21.5813 13.2082C21.5813 12.365 21.1315 11.654 20.5774 11.5127C20.0236 11.654 19.5737 12.365 19.5737 13.2082C19.5737 14.0514 20.0236 14.7621 20.5774 14.904Z" fill="#A7FFFA"/>
<path d="M17.9007 14.9035C18.6399 14.9035 19.2392 14.1444 19.2392 13.208C19.2392 12.2716 18.6399 11.5125 17.9007 11.5125C17.1615 11.5125 16.5622 12.2716 16.5622 13.208C16.5622 14.1444 17.1615 14.9035 17.9007 14.9035Z" fill="#A7FFFA"/>
<path d="M23.9235 14.904C24.1082 14.4799 24.2581 13.8661 24.2581 13.2082C24.2581 12.5504 24.1082 11.9365 23.9235 11.5127C23.7387 11.9365 23.5889 12.5504 23.5889 13.2082C23.5889 13.8661 23.7387 14.4794 23.9235 14.904Z" fill="#A7FFFA"/>
<path d="M6.52464 7.7395C6.15592 8.02206 5.85532 8.6846 5.85532 9.43504C5.85532 10.1855 6.15515 10.848 6.52464 11.1308C6.89337 10.848 7.19378 10.1857 7.19378 9.43504C7.19378 8.6844 6.89395 8.02206 6.52464 7.7395Z" fill="#A7FFFA"/>
<path d="M8.53224 7.7395C7.97818 7.88078 7.52834 8.59183 7.52834 9.43504C7.52834 10.2783 7.97818 10.9895 8.53224 11.1308C9.0861 10.9895 9.53594 10.2784 9.53594 9.43504C9.53594 8.59164 9.0861 7.88078 8.53224 7.7395Z" fill="#A7FFFA"/>
<path d="M11.209 11.1306C11.9482 11.1306 12.5474 10.3715 12.5474 9.43504C12.5474 8.49862 11.9482 7.7395 11.209 7.7395C10.4698 7.7395 9.87051 8.49862 9.87051 9.43504C9.87051 10.3715 10.4698 11.1306 11.209 11.1306Z" fill="#A7FFFA"/>
<path d="M14.5548 11.1306C15.4788 11.1306 16.2279 10.3715 16.2279 9.43504C16.2279 8.49862 15.4788 7.7395 14.5548 7.7395C13.6309 7.7395 12.8818 8.49862 12.8818 9.43504C12.8818 10.3715 13.6309 11.1306 14.5548 11.1306Z" fill="#A7FFFA"/>
<path d="M5.18618 7.7395C5.00143 8.16334 4.85162 8.77716 4.85162 9.43504C4.85162 10.0929 5.00143 10.7067 5.18618 11.1308C5.37093 10.7067 5.52075 10.0931 5.52075 9.43504C5.52075 8.77697 5.37093 8.16334 5.18618 7.7395Z" fill="#A7FFFA"/>
<path d="M22.585 11.1308C22.9538 10.848 23.2544 10.1857 23.2544 9.43504C23.2544 8.6844 22.9545 8.02206 22.585 7.7395C22.2163 8.02206 21.9159 8.6846 21.9159 9.43504C21.9159 10.1855 22.2157 10.8482 22.585 11.1308Z" fill="#A7FFFA"/>
<path d="M20.5774 11.1308C21.1315 10.9895 21.5813 10.2784 21.5813 9.43504C21.5813 8.59164 21.1315 7.88078 20.5774 7.7395C20.0236 7.88078 19.5737 8.59183 19.5737 9.43504C19.5737 10.2783 20.0236 10.9895 20.5774 11.1308Z" fill="#A7FFFA"/>
<path d="M17.9007 11.1306C18.6399 11.1306 19.2392 10.3715 19.2392 9.43504C19.2392 8.49862 18.6399 7.7395 17.9007 7.7395C17.1615 7.7395 16.5622 8.49862 16.5622 9.43504C16.5622 10.3715 17.1615 11.1306 17.9007 11.1306Z" fill="#A7FFFA"/>
<path d="M23.9235 11.1308C24.1082 10.7067 24.2581 10.0931 24.2581 9.43504C24.2581 8.77697 24.1082 8.16334 23.9235 7.7395C23.7387 8.16334 23.5889 8.77716 23.5889 9.43504C23.5889 10.0929 23.7387 10.7067 23.9235 11.1308Z" fill="#A7FFFA"/>
<path d="M6.52464 15.2852C6.15592 15.5677 5.85532 16.2303 5.85532 16.9807C5.85532 17.7311 6.15515 18.3937 6.52464 18.6762C6.89337 18.3937 7.19378 17.7311 7.19378 16.9807C7.19378 16.2303 6.89395 15.5677 6.52464 15.2852Z" fill="#A7FFFA"/>
<path d="M8.53224 15.2852C7.97818 15.4262 7.52834 16.1375 7.52834 16.9807C7.52834 17.8239 7.97818 18.5352 8.53224 18.6762C9.0861 18.5352 9.53594 17.8239 9.53594 16.9807C9.53594 16.1375 9.0861 15.4262 8.53224 15.2852Z" fill="#A7FFFA"/>
<path d="M11.209 18.6762C11.9482 18.6762 12.5474 17.9171 12.5474 16.9807C12.5474 16.0443 11.9482 15.2852 11.209 15.2852C10.4698 15.2852 9.87051 16.0443 9.87051 16.9807C9.87051 17.9171 10.4698 18.6762 11.209 18.6762Z" fill="#A7FFFA"/>
<path d="M14.5548 18.6762C15.4788 18.6762 16.2279 17.9171 16.2279 16.9807C16.2279 16.0443 15.4788 15.2852 14.5548 15.2852C13.6309 15.2852 12.8818 16.0443 12.8818 16.9807C12.8818 17.9171 13.6309 18.6762 14.5548 18.6762Z" fill="#A7FFFA"/>
<path d="M5.18618 15.2852C5.00143 15.709 4.85162 16.3228 4.85162 16.9807C4.85162 17.6386 5.00143 18.2524 5.18618 18.6762C5.37093 18.2524 5.52075 17.6386 5.52075 16.9807C5.52075 16.3228 5.37093 15.709 5.18618 15.2852Z" fill="#A7FFFA"/>
<path d="M22.585 18.6762C22.9538 18.3937 23.2544 17.7311 23.2544 16.9807C23.2544 16.2303 22.9545 15.5677 22.585 15.2852C22.2163 15.5677 21.9159 16.2303 21.9159 16.9807C21.9159 17.7311 22.2157 18.3937 22.585 18.6762Z" fill="#A7FFFA"/>
<path d="M20.5774 18.6762C21.1315 18.5352 21.5813 17.8239 21.5813 16.9807C21.5813 16.1375 21.1315 15.4262 20.5774 15.2852C20.0236 15.4262 19.5737 16.1375 19.5737 16.9807C19.5737 17.8239 20.0236 18.5352 20.5774 18.6762Z" fill="#A7FFFA"/>
<path d="M17.9007 18.6762C18.6399 18.6762 19.2392 17.9171 19.2392 16.9807C19.2392 16.0443 18.6399 15.2852 17.9007 15.2852C17.1615 15.2852 16.5622 16.0443 16.5622 16.9807C16.5622 17.9171 17.1615 18.6762 17.9007 18.6762Z" fill="#A7FFFA"/>
<path d="M23.9235 18.6762C24.1082 18.2524 24.2581 17.6386 24.2581 16.9807C24.2581 16.3228 24.1082 15.709 23.9235 15.2852C23.7387 15.709 23.5889 16.3228 23.5889 16.9807C23.5889 17.6386 23.7387 18.2524 23.9235 18.6762Z" fill="#A7FFFA"/>
<path d="M6.52464 19.0571C6.15592 19.3399 5.85532 20.0024 5.85532 20.7529C5.85532 21.5033 6.15515 22.1658 6.52464 22.4484C6.89337 22.1658 7.19378 21.5033 7.19378 20.7529C7.19378 20.0024 6.89395 19.3405 6.52464 19.0571Z" fill="#A7FFFA"/>
<path d="M8.53224 19.0571C7.97818 19.1984 7.52834 19.9097 7.52834 20.7529C7.52834 21.5961 7.97818 22.3071 8.53224 22.4484C9.0861 22.3071 9.53594 21.5961 9.53594 20.7529C9.53594 19.9097 9.0861 19.199 8.53224 19.0571Z" fill="#A7FFFA"/>
<path d="M11.209 22.4489C11.9482 22.4489 12.5474 21.6898 12.5474 20.7534C12.5474 19.817 11.9482 19.0579 11.209 19.0579C10.4698 19.0579 9.87051 19.817 9.87051 20.7534C9.87051 21.6898 10.4698 22.4489 11.209 22.4489Z" fill="#A7FFFA"/>
<path d="M14.5548 22.4489C15.4788 22.4489 16.2279 21.6898 16.2279 20.7534C16.2279 19.817 15.4788 19.0579 14.5548 19.0579C13.6309 19.0579 12.8818 19.817 12.8818 20.7534C12.8818 21.6898 13.6309 22.4489 14.5548 22.4489Z" fill="#A7FFFA"/>
<path d="M5.18618 19.0571C5.00143 19.4817 4.85162 20.0956 4.85162 20.7534C4.85162 21.4113 5.00143 22.0252 5.18618 22.449C5.37093 22.0252 5.52075 21.4113 5.52075 20.7534C5.52075 20.0956 5.37093 19.4817 5.18618 19.0571Z" fill="#A7FFFA"/>
<path d="M22.585 22.4491C22.9538 22.1666 23.2544 21.504 23.2544 20.7536C23.2544 20.0031 22.9545 19.3406 22.585 19.0579C22.2163 19.3406 21.9159 20.0031 21.9159 20.7536C21.9159 21.504 22.2157 22.1666 22.585 22.4491Z" fill="#A7FFFA"/>
<path d="M20.5774 22.4491C21.1315 22.3079 21.5813 21.5968 21.5813 20.7536C21.5813 19.9104 21.1315 19.1991 20.5774 19.0579C20.0236 19.1991 19.5737 19.9104 19.5737 20.7536C19.5737 21.5968 20.0236 22.3079 20.5774 22.4491Z" fill="#A7FFFA"/>
<path d="M17.9007 22.4489C18.6399 22.4489 19.2392 21.6898 19.2392 20.7534C19.2392 19.817 18.6399 19.0579 17.9007 19.0579C17.1615 19.0579 16.5622 19.817 16.5622 20.7534C16.5622 21.6898 17.1615 22.4489 17.9007 22.4489Z" fill="#A7FFFA"/>
<path d="M23.9235 22.4491C24.1082 22.0253 24.2581 21.4115 24.2581 20.7536C24.2581 20.0957 24.1082 19.4819 23.9235 19.0579C23.7387 19.4819 23.5889 20.0957 23.5889 20.7536C23.5889 21.4115 23.7387 22.0253 23.9235 22.4491Z" fill="#A7FFFA"/>
<path d="M6.52464 22.8306C6.15592 23.1133 5.85532 23.7757 5.85532 24.5263C5.85532 25.2769 6.15515 25.9393 6.52464 26.2218C6.89337 25.9393 7.19378 25.2767 7.19378 24.5263C7.19378 23.7759 6.89395 23.1131 6.52464 22.8306Z" fill="#A7FFFA"/>
<path d="M8.53224 22.8306C7.97818 22.9718 7.52834 23.6829 7.52834 24.5263C7.52834 25.3697 7.97818 26.0806 8.53224 26.2218C9.0861 26.0806 9.53594 25.3695 9.53594 24.5263C9.53594 23.6831 9.0861 22.9718 8.53224 22.8306Z" fill="#A7FFFA"/>
<path d="M11.209 26.2219C11.9482 26.2219 12.5474 25.4628 12.5474 24.5264C12.5474 23.5899 11.9482 22.8308 11.209 22.8308C10.4698 22.8308 9.87051 23.5899 9.87051 24.5264C9.87051 25.4628 10.4698 26.2219 11.209 26.2219Z" fill="#A7FFFA"/>
<path d="M14.5548 26.2219C15.4788 26.2219 16.2279 25.4628 16.2279 24.5264C16.2279 23.5899 15.4788 22.8308 14.5548 22.8308C13.6309 22.8308 12.8818 23.5899 12.8818 24.5264C12.8818 25.4628 13.6309 26.2219 14.5548 26.2219Z" fill="#A7FFFA"/>
<path d="M5.18618 22.8306C5.00143 23.2546 4.85162 23.8682 4.85162 24.5263C4.85162 25.1844 5.00143 25.798 5.18618 26.2218C5.37093 25.798 5.52075 25.1842 5.52075 24.5263C5.52075 23.8684 5.37093 23.2546 5.18618 22.8306Z" fill="#A7FFFA"/>
<path d="M22.585 26.2218C22.9538 25.9393 23.2544 25.2767 23.2544 24.5263C23.2544 23.7759 22.9545 23.1133 22.585 22.8306C22.2163 23.1133 21.9159 23.7757 21.9159 24.5263C21.9159 25.2769 22.2157 25.9393 22.585 26.2218Z" fill="#A7FFFA"/>
<path d="M20.5774 26.2218C21.1315 26.0806 21.5813 25.3695 21.5813 24.5263C21.5813 23.6831 21.1315 22.9718 20.5774 22.8306C20.0236 22.9718 19.5737 23.6829 19.5737 24.5263C19.5737 25.3697 20.0236 26.0806 20.5774 26.2218Z" fill="#A7FFFA"/>
<path d="M17.9007 26.2219C18.6399 26.2219 19.2392 25.4628 19.2392 24.5264C19.2392 23.5899 18.6399 22.8308 17.9007 22.8308C17.1615 22.8308 16.5622 23.5899 16.5622 24.5264C16.5622 25.4628 17.1615 26.2219 17.9007 26.2219Z" fill="#A7FFFA"/>
<path d="M23.9235 26.2218C24.1082 25.798 24.2581 25.1842 24.2581 24.5263C24.2581 23.8684 24.1082 23.2546 23.9235 22.8306C23.7387 23.2546 23.5889 23.8682 23.5889 24.5263C23.5889 25.1844 23.7387 25.798 23.9235 26.2218Z" fill="#A7FFFA"/>
<path d="M33.0395 22.1747C32.3991 22.1747 31.8363 22.0728 31.3511 21.869C30.866 21.6555 30.4778 21.3644 30.1867 20.9957C29.8956 20.627 29.721 20.2001 29.6628 19.7149H31.5403C31.5986 19.9963 31.7538 20.2389 32.0061 20.4426C32.2681 20.6367 32.6028 20.7337 33.0104 20.7337C33.4179 20.7337 33.7139 20.6513 33.8982 20.4863C34.0923 20.3213 34.1893 20.1321 34.1893 19.9187C34.1893 19.6082 34.0535 19.3995 33.7818 19.2928C33.5101 19.1764 33.1317 19.0648 32.6465 18.958C32.336 18.8901 32.0206 18.8076 31.7004 18.7106C31.3802 18.6136 31.0843 18.4923 30.8126 18.3467C30.5506 18.1915 30.3371 17.9974 30.1722 17.7645C30.0072 17.522 29.9248 17.226 29.9248 16.8767C29.9248 16.2363 30.177 15.6978 30.6816 15.2611C31.1959 14.8245 31.9139 14.6061 32.8357 14.6061C33.6896 14.6061 34.3688 14.8051 34.8734 15.2029C35.3877 15.6007 35.6933 16.149 35.7904 16.8476H34.0292C33.9225 16.3139 33.5198 16.0471 32.8212 16.0471C32.4718 16.0471 32.2002 16.115 32.0061 16.2508C31.8217 16.3867 31.7296 16.5565 31.7296 16.7603C31.7296 16.9737 31.8702 17.1435 32.1516 17.2697C32.433 17.3958 32.8066 17.5123 33.2724 17.619C33.7769 17.7354 34.2378 17.8664 34.6551 18.012C35.082 18.1478 35.4216 18.3564 35.6739 18.6378C35.9262 18.9095 36.0523 19.3025 36.0523 19.8168C36.062 20.2631 35.9456 20.6658 35.703 21.0248C35.4604 21.3838 35.1111 21.6652 34.6551 21.869C34.199 22.0728 33.6605 22.1747 33.0395 22.1747ZM39.9975 22.1747C39.2698 22.1747 38.6245 22.0194 38.0617 21.7089C37.499 21.3984 37.0575 20.9618 36.7372 20.399C36.417 19.8362 36.2569 19.1861 36.2569 18.4486C36.2569 17.7015 36.4122 17.0368 36.7227 16.4546C37.0429 15.8724 37.4795 15.4212 38.0326 15.101C38.5954 14.7711 39.2552 14.6061 40.0121 14.6061C40.7204 14.6061 41.3463 14.7614 41.8897 15.0719C42.433 15.3824 42.8551 15.8093 43.1559 16.3527C43.4664 16.8864 43.6217 17.4831 43.6217 18.143C43.6217 18.2497 43.6168 18.3613 43.6071 18.4777C43.6071 18.5942 43.6023 18.7155 43.5926 18.8416H38.1054C38.1442 19.4044 38.3383 19.8459 38.6876 20.1661C39.0466 20.4863 39.4784 20.6464 39.983 20.6464C40.3614 20.6464 40.6768 20.5639 40.929 20.399C41.191 20.2243 41.3851 20.0011 41.5112 19.7294H43.4034C43.2675 20.1855 43.0395 20.6027 42.7193 20.9812C42.4088 21.3499 42.0207 21.641 41.5549 21.8545C41.0988 22.0679 40.5797 22.1747 39.9975 22.1747ZM40.0121 16.1198C39.556 16.1198 39.1534 16.2508 38.804 16.5128C38.4547 16.7651 38.2315 17.1532 38.1345 17.6772H41.7296C41.7004 17.2018 41.5258 16.8233 41.2056 16.5419C40.8854 16.2605 40.4875 16.1198 40.0121 16.1198ZM43.9757 22V14.7808H45.635L45.8096 16.1344C46.0716 15.6686 46.4258 15.2999 46.8721 15.0282C47.3282 14.7468 47.8618 14.6061 48.4732 14.6061V16.571H47.9492C47.5416 16.571 47.1778 16.6341 46.8576 16.7603C46.5374 16.8864 46.2851 17.1047 46.1007 17.4152C45.9261 17.7257 45.8387 18.1575 45.8387 18.7106V22H43.9757ZM51.0224 22.1747C50.4014 22.1747 49.892 22.0776 49.4942 21.8836C49.0964 21.6798 48.8004 21.413 48.6063 21.083C48.4123 20.7531 48.3152 20.3893 48.3152 19.9914C48.3152 19.3219 48.5772 18.7785 49.1012 18.3613C49.6252 17.9441 50.4111 17.7354 51.4591 17.7354H53.293V17.5608C53.293 17.0659 53.1523 16.702 52.8709 16.4692C52.5895 16.2363 52.2402 16.1198 51.823 16.1198C51.4445 16.1198 51.1146 16.212 50.8332 16.3964C50.5518 16.571 50.3772 16.833 50.3093 17.1823H48.4899C48.5384 16.6584 48.7131 16.2023 49.0139 15.8142C49.3244 15.4261 49.7222 15.1301 50.2074 14.9263C50.6925 14.7129 51.2359 14.6061 51.8375 14.6061C52.8661 14.6061 53.6763 14.8633 54.2682 15.3775C54.8601 15.8918 55.156 16.6196 55.156 17.5608V22H53.5695L53.3949 20.8356C53.1814 21.2237 52.8806 21.5439 52.4925 21.7962C52.1141 22.0485 51.624 22.1747 51.0224 22.1747ZM51.4445 20.7192C51.9782 20.7192 52.3906 20.5445 52.6817 20.1952C52.9825 19.8459 53.1717 19.4141 53.2493 18.8998H51.6629C51.168 18.8998 50.8138 18.992 50.6004 19.1764C50.3869 19.351 50.2801 19.5693 50.2801 19.8313C50.2801 20.1127 50.3869 20.331 50.6004 20.4863C50.8138 20.6415 51.0952 20.7192 51.4445 20.7192ZM56.5215 22.1019C56.1819 22.1019 55.9005 21.9951 55.6773 21.7817C55.4638 21.5682 55.3571 21.3111 55.3571 21.0103C55.3571 20.6998 55.4638 20.4378 55.6773 20.2243C55.9005 20.0108 56.1819 19.9041 56.5215 19.9041C56.8611 19.9041 57.1376 20.0108 57.3511 20.2243C57.5743 20.4378 57.6859 20.6998 57.6859 21.0103C57.6859 21.3111 57.5743 21.5682 57.3511 21.7817C57.1376 21.9951 56.8611 22.1019 56.5215 22.1019ZM59.1748 22L57.0644 14.7808H58.9128L60.1646 19.9769L61.62 14.7808H63.6868L65.1423 19.9769L66.4086 14.7808H68.257L66.132 22H64.1962L62.6534 16.6002L61.1106 22H59.1748ZM71.4278 22.1747C70.7291 22.1747 70.0984 22.0146 69.5356 21.6943C68.9826 21.3741 68.5411 20.9326 68.2111 20.3699C67.8909 19.7974 67.7308 19.1375 67.7308 18.3904C67.7308 17.6433 67.8958 16.9883 68.2257 16.4255C68.5556 15.853 68.9971 15.4067 69.5502 15.0865C70.113 14.7662 70.7437 14.6061 71.4423 14.6061C72.1312 14.6061 72.7523 14.7662 73.3053 15.0865C73.8681 15.4067 74.3096 15.853 74.6298 16.4255C74.9597 16.9883 75.1247 17.6433 75.1247 18.3904C75.1247 19.1375 74.9597 19.7974 74.6298 20.3699C74.3096 20.9326 73.8681 21.3741 73.3053 21.6943C72.7426 22.0146 72.1167 22.1747 71.4278 22.1747ZM71.4278 20.5591C71.9129 20.5591 72.335 20.3796 72.694 20.0205C73.0531 19.6518 73.2326 19.1084 73.2326 18.3904C73.2326 17.6724 73.0531 17.1338 72.694 16.7748C72.335 16.4061 71.9178 16.2217 71.4423 16.2217C70.9475 16.2217 70.5205 16.4061 70.1615 16.7748C69.8122 17.1338 69.6375 17.6724 69.6375 18.3904C69.6375 19.1084 69.8122 19.6518 70.1615 20.0205C70.5205 20.3796 70.9426 20.5591 71.4278 20.5591ZM75.5775 22V14.7808H77.2368L77.4114 16.1344C77.6734 15.6686 78.0276 15.2999 78.4739 15.0282C78.93 14.7468 79.4637 14.6061 80.075 14.6061V16.571H79.551C79.1435 16.571 78.7796 16.6341 78.4594 16.7603C78.1392 16.8864 77.8869 17.1047 77.7025 17.4152C77.5279 17.7257 77.4405 18.1575 77.4405 18.7106V22H75.5775ZM80.1354 22V11.5205H81.9984V17.7063L84.5601 14.7808H86.7724L83.8178 18.0702L87.2527 22H84.9239L81.9984 18.3758V22H80.1354ZM89.8233 22.1747C89.1828 22.1747 88.6201 22.0728 88.1349 21.869C87.6497 21.6555 87.2616 21.3644 86.9705 20.9957C86.6794 20.627 86.5048 20.2001 86.4465 19.7149H88.3241C88.3823 19.9963 88.5376 20.2389 88.7899 20.4426C89.0519 20.6367 89.3866 20.7337 89.7941 20.7337C90.2017 20.7337 90.4976 20.6513 90.682 20.4863C90.8761 20.3213 90.9731 20.1321 90.9731 19.9187C90.9731 19.6082 90.8372 19.3995 90.5656 19.2928C90.2939 19.1764 89.9154 19.0648 89.4303 18.958C89.1198 18.8901 88.8044 18.8076 88.4842 18.7106C88.164 18.6136 87.8681 18.4923 87.5964 18.3467C87.3344 18.1915 87.1209 17.9974 86.956 17.7645C86.791 17.522 86.7085 17.226 86.7085 16.8767C86.7085 16.2363 86.9608 15.6978 87.4654 15.2611C87.9796 14.8245 88.6977 14.6061 89.6195 14.6061C90.4734 14.6061 91.1526 14.8051 91.6572 15.2029C92.1714 15.6007 92.4771 16.149 92.5741 16.8476H90.813C90.7063 16.3139 90.3036 16.0471 89.6049 16.0471C89.2556 16.0471 88.9839 16.115 88.7899 16.2508C88.6055 16.3867 88.5133 16.5565 88.5133 16.7603C88.5133 16.9737 88.654 17.1435 88.9354 17.2697C89.2168 17.3958 89.5904 17.5123 90.0561 17.619C90.5607 17.7354 91.0216 17.8664 91.4388 18.012C91.8658 18.1478 92.2054 18.3564 92.4577 18.6378C92.71 18.9095 92.8361 19.3025 92.8361 19.8168C92.8458 20.2631 92.7294 20.6658 92.4868 21.0248C92.2442 21.3838 91.8949 21.6652 91.4388 21.869C90.9828 22.0728 90.4443 22.1747 89.8233 22.1747Z" fill="#A7FFFA"/>
</svg>
