<svg width="155" height="56" viewBox="0 0 155 56" fill="none" xmlns="http://www.w3.org/2000/svg">
<path d="M10.7587 18.9832C10.1507 19.4491 9.65503 20.5416 9.65503 21.779C9.65503 23.0164 10.1494 24.1089 10.7587 24.5761C11.3667 24.1099 11.8621 23.0174 11.8621 21.78C11.8621 20.5425 11.3677 19.4491 10.7587 18.9832Z" fill="black"/>
<path d="M14.0691 18.9832C13.1555 19.2161 12.4138 20.3886 12.4138 21.779C12.4138 23.1694 13.1555 24.3422 14.0691 24.5752C14.9824 24.3422 15.7242 23.1694 15.7242 21.779C15.7242 20.3886 14.9824 19.2161 14.0691 18.9832Z" fill="black"/>
<path d="M18.4829 24.5748C19.7018 24.5748 20.6899 23.3231 20.6899 21.779C20.6899 20.2349 19.7018 18.9832 18.4829 18.9832C17.2639 18.9832 16.2758 20.2349 16.2758 21.779C16.2758 23.3231 17.2639 24.5748 18.4829 24.5748Z" fill="black"/>
<path d="M24 24.5748C25.5236 24.5748 26.7587 23.3231 26.7587 21.779C26.7587 20.2349 25.5236 18.9832 24 18.9832C22.4764 18.9832 21.2413 20.2349 21.2413 21.779C21.2413 23.3231 22.4764 24.5748 24 24.5748Z" fill="black"/>
<path d="M8.55168 18.9832C8.24704 19.682 8 20.6942 8 21.779C8 22.8638 8.24704 23.876 8.55168 24.5752C8.85632 23.876 9.10336 22.8638 9.10336 21.779C9.10336 20.6942 8.85632 19.682 8.55168 18.9832Z" fill="black"/>
<path d="M37.2413 24.5759C37.8493 24.1096 38.345 23.0172 38.345 21.7797C38.345 20.5423 37.8506 19.4498 37.2413 18.9839C36.6333 19.4498 36.1379 20.5423 36.1379 21.7797C36.1379 23.0172 36.6323 24.1087 37.2413 24.5759Z" fill="black"/>
<path d="M33.9309 24.5759C34.8445 24.3429 35.5862 23.1701 35.5862 21.7797C35.5862 20.3893 34.8445 19.2168 33.9309 18.9839C33.0176 19.2168 32.2758 20.3893 32.2758 21.7797C32.2758 23.1701 33.0176 24.342 33.9309 24.5759Z" fill="black"/>
<path d="M29.5171 24.5748C30.736 24.5748 31.7241 23.3231 31.7241 21.779C31.7241 20.2349 30.736 18.9832 29.5171 18.9832C28.2982 18.9832 27.3101 20.2349 27.3101 21.779C27.3101 23.3231 28.2982 24.5748 29.5171 24.5748Z" fill="black"/>
<path d="M39.4483 24.5759C39.753 23.8767 40 22.8645 40 21.7797C40 20.6949 39.753 19.6828 39.4483 18.9839C39.1437 19.6828 38.8967 20.6949 38.8967 21.7797C38.8967 22.8645 39.1437 23.8757 39.4483 24.5759Z" fill="black"/>
<path d="M10.7587 12.762C10.1507 13.2279 9.65503 14.3204 9.65503 15.5578C9.65503 16.7952 10.1494 17.8877 10.7587 18.354C11.3667 17.8877 11.8621 16.7956 11.8621 15.5578C11.8621 14.32 11.3677 13.2279 10.7587 12.762Z" fill="black"/>
<path d="M14.0691 12.762C13.1555 12.9949 12.4138 14.1674 12.4138 15.5578C12.4138 16.9482 13.1555 18.121 14.0691 18.354C14.9824 18.121 15.7242 16.9485 15.7242 15.5578C15.7242 14.1671 14.9824 12.9949 14.0691 12.762Z" fill="black"/>
<path d="M18.4829 18.3536C19.7018 18.3536 20.6899 17.1019 20.6899 15.5578C20.6899 14.0137 19.7018 12.762 18.4829 12.762C17.2639 12.762 16.2758 14.0137 16.2758 15.5578C16.2758 17.1019 17.2639 18.3536 18.4829 18.3536Z" fill="black"/>
<path d="M24 18.3536C25.5236 18.3536 26.7587 17.1019 26.7587 15.5578C26.7587 14.0137 25.5236 12.762 24 12.762C22.4764 12.762 21.2413 14.0137 21.2413 15.5578C21.2413 17.1019 22.4764 18.3536 24 18.3536Z" fill="black"/>
<path d="M8.55168 12.762C8.24704 13.4608 8 14.473 8 15.5578C8 16.6426 8.24704 17.6548 8.55168 18.354C8.85632 17.6548 9.10336 16.6429 9.10336 15.5578C9.10336 14.4727 8.85632 13.4608 8.55168 12.762Z" fill="black"/>
<path d="M37.2413 18.354C37.8493 17.8877 38.345 16.7956 38.345 15.5578C38.345 14.32 37.8506 13.2279 37.2413 12.762C36.6333 13.2279 36.1379 14.3204 36.1379 15.5578C36.1379 16.7952 36.6323 17.888 37.2413 18.354Z" fill="black"/>
<path d="M33.9309 18.354C34.8445 18.121 35.5862 16.9485 35.5862 15.5578C35.5862 14.1671 34.8445 12.9949 33.9309 12.762C33.0176 12.9949 32.2758 14.1674 32.2758 15.5578C32.2758 16.9482 33.0176 18.121 33.9309 18.354Z" fill="black"/>
<path d="M29.5171 18.3536C30.736 18.3536 31.7241 17.1019 31.7241 15.5578C31.7241 14.0137 30.736 12.762 29.5171 12.762C28.2982 12.762 27.3101 14.0137 27.3101 15.5578C27.3101 17.1019 28.2982 18.3536 29.5171 18.3536Z" fill="black"/>
<path d="M39.4483 18.354C39.753 17.6548 40 16.6429 40 15.5578C40 14.4727 39.753 13.4608 39.4483 12.762C39.1437 13.4608 38.8967 14.473 38.8967 15.5578C38.8967 16.6426 39.1437 17.6548 39.4483 18.354Z" fill="black"/>
<path d="M10.7587 25.2041C10.1507 25.67 9.65503 26.7625 9.65503 27.9999C9.65503 29.2374 10.1494 30.3299 10.7587 30.7958C11.3667 30.3299 11.8621 29.2374 11.8621 27.9999C11.8621 26.7625 11.3677 25.67 10.7587 25.2041Z" fill="black"/>
<path d="M14.0691 25.2041C13.1555 25.4367 12.4138 26.6095 12.4138 27.9999C12.4138 29.3903 13.1555 30.5631 14.0691 30.7958C14.9824 30.5631 15.7242 29.3903 15.7242 27.9999C15.7242 26.6095 14.9824 25.4367 14.0691 25.2041Z" fill="black"/>
<path d="M18.4829 30.7958C19.7018 30.7958 20.6899 29.544 20.6899 27.9999C20.6899 26.4558 19.7018 25.2041 18.4829 25.2041C17.2639 25.2041 16.2758 26.4558 16.2758 27.9999C16.2758 29.544 17.2639 30.7958 18.4829 30.7958Z" fill="black"/>
<path d="M24 30.7958C25.5236 30.7958 26.7587 29.544 26.7587 27.9999C26.7587 26.4558 25.5236 25.2041 24 25.2041C22.4764 25.2041 21.2413 26.4558 21.2413 27.9999C21.2413 29.544 22.4764 30.7958 24 30.7958Z" fill="black"/>
<path d="M8.55168 25.2041C8.24704 25.903 8 26.9151 8 27.9999C8 29.0847 8.24704 30.0969 8.55168 30.7958C8.85632 30.0969 9.10336 29.0847 9.10336 27.9999C9.10336 26.9151 8.85632 25.903 8.55168 25.2041Z" fill="black"/>
<path d="M37.2413 30.7958C37.8493 30.3299 38.345 29.2374 38.345 27.9999C38.345 26.7625 37.8506 25.67 37.2413 25.2041C36.6333 25.67 36.1379 26.7625 36.1379 27.9999C36.1379 29.2374 36.6323 30.3299 37.2413 30.7958Z" fill="black"/>
<path d="M33.9309 30.7958C34.8445 30.5631 35.5862 29.3903 35.5862 27.9999C35.5862 26.6095 34.8445 25.4367 33.9309 25.2041C33.0176 25.4367 32.2758 26.6095 32.2758 27.9999C32.2758 29.3903 33.0176 30.5631 33.9309 30.7958Z" fill="black"/>
<path d="M29.5171 30.7958C30.736 30.7958 31.7241 29.544 31.7241 27.9999C31.7241 26.4558 30.736 25.2041 29.5171 25.2041C28.2982 25.2041 27.3101 26.4558 27.3101 27.9999C27.3101 29.544 28.2982 30.7958 29.5171 30.7958Z" fill="black"/>
<path d="M39.4483 30.7958C39.753 30.0969 40 29.0847 40 27.9999C40 26.9151 39.753 25.903 39.4483 25.2041C39.1437 25.903 38.8967 26.9151 38.8967 27.9999C38.8967 29.0847 39.1437 30.0969 39.4483 30.7958Z" fill="black"/>
<path d="M10.7587 31.4241C10.1507 31.8903 9.65503 32.9828 9.65503 34.2202C9.65503 35.4577 10.1494 36.5502 10.7587 37.0161C11.3667 36.5502 11.8621 35.4577 11.8621 34.2202C11.8621 32.9828 11.3677 31.8913 10.7587 31.4241Z" fill="black"/>
<path d="M14.0691 31.4241C13.1555 31.657 12.4138 32.8298 12.4138 34.2202C12.4138 35.6106 13.1555 36.7831 14.0691 37.0161C14.9824 36.7831 15.7242 35.6106 15.7242 34.2202C15.7242 32.8298 14.9824 31.658 14.0691 31.4241Z" fill="black"/>
<path d="M18.4829 37.017C19.7018 37.017 20.6899 35.7652 20.6899 34.2211C20.6899 32.677 19.7018 31.4253 18.4829 31.4253C17.2639 31.4253 16.2758 32.677 16.2758 34.2211C16.2758 35.7652 17.2639 37.017 18.4829 37.017Z" fill="black"/>
<path d="M24 37.017C25.5236 37.017 26.7587 35.7652 26.7587 34.2211C26.7587 32.677 25.5236 31.4253 24 31.4253C22.4764 31.4253 21.2413 32.677 21.2413 34.2211C21.2413 35.7652 22.4764 37.017 24 37.017Z" fill="black"/>
<path d="M8.55168 31.4241C8.24704 32.1242 8 33.1364 8 34.2212C8 35.306 8.24704 36.3182 8.55168 37.017C8.85632 36.3182 9.10336 35.306 9.10336 34.2212C9.10336 33.1364 8.85632 32.1242 8.55168 31.4241Z" fill="black"/>
<path d="M37.2413 37.017C37.8493 36.5511 38.345 35.4586 38.345 34.2212C38.345 32.9838 37.8506 31.8913 37.2413 31.425C36.6333 31.8913 36.1379 32.9838 36.1379 34.2212C36.1379 35.4586 36.6323 36.5511 37.2413 37.017Z" fill="black"/>
<path d="M33.9309 37.017C34.8445 36.7841 35.5862 35.6116 35.5862 34.2212C35.5862 32.8308 34.8445 31.658 33.9309 31.425C33.0176 31.658 32.2758 32.8308 32.2758 34.2212C32.2758 35.6116 33.0176 36.7841 33.9309 37.017Z" fill="black"/>
<path d="M29.5171 37.017C30.736 37.017 31.7241 35.7652 31.7241 34.2211C31.7241 32.677 30.736 31.4253 29.5171 31.4253C28.2982 31.4253 27.3101 32.677 27.3101 34.2211C27.3101 35.7652 28.2982 37.017 29.5171 37.017Z" fill="black"/>
<path d="M39.4483 37.017C39.753 36.3182 40 35.306 40 34.2212C40 33.1364 39.753 32.1242 39.4483 31.425C39.1437 32.1242 38.8967 33.1364 38.8967 34.2212C38.8967 35.306 39.1437 36.3182 39.4483 37.017Z" fill="black"/>
<path d="M10.7587 37.646C10.1507 38.1122 9.65503 39.2044 9.65503 40.4422C9.65503 41.6799 10.1494 42.7721 10.7587 43.238C11.3667 42.7721 11.8621 41.6796 11.8621 40.4422C11.8621 39.2047 11.3677 38.1119 10.7587 37.646Z" fill="black"/>
<path d="M14.0691 37.646C13.1555 37.879 12.4138 39.0514 12.4138 40.4422C12.4138 41.8329 13.1555 43.005 14.0691 43.238C14.9824 43.005 15.7242 41.8326 15.7242 40.4422C15.7242 39.0518 14.9824 37.879 14.0691 37.646Z" fill="black"/>
<path d="M18.4829 43.2382C19.7018 43.2382 20.6899 41.9864 20.6899 40.4423C20.6899 38.8982 19.7018 37.6465 18.4829 37.6465C17.2639 37.6465 16.2758 38.8982 16.2758 40.4423C16.2758 41.9864 17.2639 43.2382 18.4829 43.2382Z" fill="black"/>
<path d="M24 43.2382C25.5236 43.2382 26.7587 41.9864 26.7587 40.4423C26.7587 38.8982 25.5236 37.6465 24 37.6465C22.4764 37.6465 21.2413 38.8982 21.2413 40.4423C21.2413 41.9864 22.4764 43.2382 24 43.2382Z" fill="black"/>
<path d="M8.55168 37.646C8.24704 38.3452 8 39.357 8 40.4422C8 41.5273 8.24704 42.5391 8.55168 43.238C8.85632 42.5391 9.10336 41.527 9.10336 40.4422C9.10336 39.3574 8.85632 38.3452 8.55168 37.646Z" fill="black"/>
<path d="M37.2413 43.238C37.8493 42.7721 38.345 41.6796 38.345 40.4422C38.345 39.2047 37.8506 38.1122 37.2413 37.646C36.6333 38.1122 36.1379 39.2044 36.1379 40.4422C36.1379 41.6799 36.6323 42.7721 37.2413 43.238Z" fill="black"/>
<path d="M33.9309 43.238C34.8445 43.005 35.5862 41.8326 35.5862 40.4422C35.5862 39.0518 34.8445 37.879 33.9309 37.646C33.0176 37.879 32.2758 39.0514 32.2758 40.4422C32.2758 41.8329 33.0176 43.005 33.9309 43.238Z" fill="black"/>
<path d="M29.5171 43.2382C30.736 43.2382 31.7241 41.9864 31.7241 40.4423C31.7241 38.8982 30.736 37.6465 29.5171 37.6465C28.2982 37.6465 27.3101 38.8982 27.3101 40.4423C27.3101 41.9864 28.2982 43.2382 29.5171 43.2382Z" fill="black"/>
<path d="M39.4483 43.238C39.753 42.5391 40 41.527 40 40.4422C40 39.3574 39.753 38.3452 39.4483 37.646C39.1437 38.3452 38.8967 39.357 38.8967 40.4422C38.8967 41.5273 39.1437 42.5391 39.4483 43.238Z" fill="black"/>
<path d="M54.48 36.288C53.424 36.288 52.496 36.12 51.696 35.784C50.896 35.432 50.256 34.952 49.776 34.344C49.296 33.736 49.008 33.032 48.912 32.232H52.008C52.104 32.696 52.36 33.096 52.776 33.432C53.208 33.752 53.76 33.912 54.432 33.912C55.104 33.912 55.592 33.776 55.896 33.504C56.216 33.232 56.376 32.92 56.376 32.568C56.376 32.056 56.152 31.712 55.704 31.536C55.256 31.344 54.632 31.16 53.832 30.984C53.32 30.872 52.8 30.736 52.272 30.576C51.744 30.416 51.256 30.216 50.808 29.976C50.376 29.72 50.024 29.4 49.752 29.016C49.48 28.616 49.344 28.128 49.344 27.552C49.344 26.496 49.76 25.608 50.592 24.888C51.44 24.168 52.624 23.808 54.144 23.808C55.552 23.808 56.672 24.136 57.504 24.792C58.352 25.448 58.856 26.352 59.016 27.504H56.112C55.936 26.624 55.272 26.184 54.12 26.184C53.544 26.184 53.096 26.296 52.776 26.52C52.472 26.744 52.32 27.024 52.32 27.36C52.32 27.712 52.552 27.992 53.016 28.2C53.48 28.408 54.096 28.6 54.864 28.776C55.696 28.968 56.456 29.184 57.144 29.424C57.848 29.648 58.408 29.992 58.824 30.456C59.24 30.904 59.448 31.552 59.448 32.4C59.464 33.136 59.272 33.8 58.872 34.392C58.472 34.984 57.896 35.448 57.144 35.784C56.392 36.12 55.504 36.288 54.48 36.288ZM65.9534 36.288C64.7534 36.288 63.6894 36.032 62.7614 35.52C61.8334 35.008 61.1054 34.288 60.5774 33.36C60.0494 32.432 59.7854 31.36 59.7854 30.144C59.7854 28.912 60.0414 27.816 60.5534 26.856C61.0814 25.896 61.8014 25.152 62.7134 24.624C63.6414 24.08 64.7294 23.808 65.9774 23.808C67.1454 23.808 68.1774 24.064 69.0734 24.576C69.9694 25.088 70.6654 25.792 71.1614 26.688C71.6734 27.568 71.9294 28.552 71.9294 29.64C71.9294 29.816 71.9214 30 71.9054 30.192C71.9054 30.384 71.8974 30.584 71.8814 30.792H62.8334C62.8974 31.72 63.2174 32.448 63.7934 32.976C64.3854 33.504 65.0974 33.768 65.9294 33.768C66.5534 33.768 67.0734 33.632 67.4894 33.36C67.9214 33.072 68.2414 32.704 68.4494 32.256H71.5694C71.3454 33.008 70.9694 33.696 70.4414 34.32C69.9294 34.928 69.2894 35.408 68.5214 35.76C67.7694 36.112 66.9134 36.288 65.9534 36.288ZM65.9774 26.304C65.2254 26.304 64.5614 26.52 63.9854 26.952C63.4094 27.368 63.0414 28.008 62.8814 28.872H68.8094C68.7614 28.088 68.4734 27.464 67.9454 27C67.4174 26.536 66.7614 26.304 65.9774 26.304ZM72.5131 36V24.096H75.2491L75.5371 26.328C75.9691 25.56 76.5531 24.952 77.2891 24.504C78.0411 24.04 78.9211 23.808 79.9291 23.808V27.048H79.0651C78.3931 27.048 77.7931 27.152 77.2651 27.36C76.7371 27.568 76.3211 27.928 76.0171 28.44C75.7291 28.952 75.5851 29.664 75.5851 30.576V36H72.5131ZM84.1328 36.288C83.1088 36.288 82.2688 36.128 81.6128 35.808C80.9568 35.472 80.4688 35.032 80.1488 34.488C79.8288 33.944 79.6688 33.344 79.6688 32.688C79.6688 31.584 80.1008 30.688 80.9648 30C81.8288 29.312 83.1248 28.968 84.8528 28.968H87.8768V28.68C87.8768 27.864 87.6448 27.264 87.1808 26.88C86.7168 26.496 86.1408 26.304 85.4528 26.304C84.8288 26.304 84.2848 26.456 83.8208 26.76C83.3568 27.048 83.0688 27.48 82.9568 28.056H79.9568C80.0368 27.192 80.3248 26.44 80.8208 25.8C81.3328 25.16 81.9888 24.672 82.7888 24.336C83.5888 23.984 84.4848 23.808 85.4768 23.808C87.1728 23.808 88.5088 24.232 89.4848 25.08C90.4608 25.928 90.9488 27.128 90.9488 28.68V36H88.3328L88.0448 34.08C87.6928 34.72 87.1968 35.248 86.5568 35.664C85.9328 36.08 85.1248 36.288 84.1328 36.288ZM84.8288 33.888C85.7088 33.888 86.3888 33.6 86.8688 33.024C87.3648 32.448 87.6768 31.736 87.8048 30.888H85.1888C84.3728 30.888 83.7888 31.04 83.4368 31.344C83.0848 31.632 82.9088 31.992 82.9088 32.424C82.9088 32.888 83.0848 33.248 83.4368 33.504C83.7888 33.76 84.2528 33.888 84.8288 33.888ZM93.2003 36.168C92.6403 36.168 92.1763 35.992 91.8083 35.64C91.4563 35.288 91.2803 34.864 91.2803 34.368C91.2803 33.856 91.4563 33.424 91.8083 33.072C92.1763 32.72 92.6403 32.544 93.2003 32.544C93.7603 32.544 94.2163 32.72 94.5683 33.072C94.9363 33.424 95.1203 33.856 95.1203 34.368C95.1203 34.864 94.9363 35.288 94.5683 35.64C94.2163 35.992 93.7603 36.168 93.2003 36.168ZM97.5755 36L94.0955 24.096H97.1435L99.2075 32.664L101.608 24.096H105.016L107.416 32.664L109.504 24.096H112.552L109.048 36H105.856L103.312 27.096L100.768 36H97.5755ZM117.78 36.288C116.628 36.288 115.588 36.024 114.66 35.496C113.748 34.968 113.02 34.24 112.476 33.312C111.948 32.368 111.684 31.28 111.684 30.048C111.684 28.816 111.956 27.736 112.5 26.808C113.044 25.864 113.772 25.128 114.684 24.6C115.612 24.072 116.652 23.808 117.804 23.808C118.94 23.808 119.964 24.072 120.876 24.6C121.804 25.128 122.532 25.864 123.06 26.808C123.604 27.736 123.876 28.816 123.876 30.048C123.876 31.28 123.604 32.368 123.06 33.312C122.532 34.24 121.804 34.968 120.876 35.496C119.948 36.024 118.916 36.288 117.78 36.288ZM117.78 33.624C118.58 33.624 119.276 33.328 119.868 32.736C120.46 32.128 120.756 31.232 120.756 30.048C120.756 28.864 120.46 27.976 119.868 27.384C119.276 26.776 118.588 26.472 117.804 26.472C116.988 26.472 116.284 26.776 115.692 27.384C115.116 27.976 114.828 28.864 114.828 30.048C114.828 31.232 115.116 32.128 115.692 32.736C116.284 33.328 116.98 33.624 117.78 33.624ZM124.623 36V24.096H127.359L127.647 26.328C128.079 25.56 128.663 24.952 129.398 24.504C130.151 24.04 131.031 23.808 132.039 23.808V27.048H131.175C130.503 27.048 129.903 27.152 129.375 27.36C128.847 27.568 128.431 27.928 128.127 28.44C127.839 28.952 127.695 29.664 127.695 30.576V36H124.623ZM132.138 36V18.72H135.21V28.92L139.434 24.096H143.082L138.21 29.52L143.874 36H140.034L135.21 30.024V36H132.138ZM148.113 36.288C147.057 36.288 146.129 36.12 145.329 35.784C144.529 35.432 143.889 34.952 143.409 34.344C142.929 33.736 142.641 33.032 142.545 32.232H145.641C145.737 32.696 145.993 33.096 146.409 33.432C146.841 33.752 147.393 33.912 148.065 33.912C148.737 33.912 149.225 33.776 149.529 33.504C149.849 33.232 150.009 32.92 150.009 32.568C150.009 32.056 149.785 31.712 149.337 31.536C148.889 31.344 148.265 31.16 147.465 30.984C146.953 30.872 146.433 30.736 145.905 30.576C145.377 30.416 144.889 30.216 144.441 29.976C144.009 29.72 143.657 29.4 143.385 29.016C143.113 28.616 142.977 28.128 142.977 27.552C142.977 26.496 143.393 25.608 144.225 24.888C145.073 24.168 146.257 23.808 147.777 23.808C149.185 23.808 150.305 24.136 151.137 24.792C151.985 25.448 152.489 26.352 152.649 27.504H149.745C149.569 26.624 148.905 26.184 147.753 26.184C147.177 26.184 146.729 26.296 146.409 26.52C146.105 26.744 145.953 27.024 145.953 27.36C145.953 27.712 146.185 27.992 146.649 28.2C147.113 28.408 147.729 28.6 148.497 28.776C149.329 28.968 150.089 29.184 150.777 29.424C151.481 29.648 152.041 29.992 152.457 30.456C152.873 30.904 153.081 31.552 153.081 32.4C153.097 33.136 152.905 33.8 152.505 34.392C152.105 34.984 151.529 35.448 150.777 35.784C150.025 36.12 149.137 36.288 148.113 36.288Z" fill="black"/>
</svg>
