<svg width="28" height="21" viewBox="0 0 28 21" fill="none" xmlns="http://www.w3.org/2000/svg">
<path opacity="0.4" d="M27.4167 10.5C27.4167 16.207 22.7903 20.8334 17.0833 20.8334C11.3764 20.8334 6.75 16.207 6.75 10.5C6.75 4.79308 11.3764 0.166687 17.0833 0.166687C22.7903 0.166687 27.4167 4.79308 27.4167 10.5Z" fill="#00B396"/>
<path fill-rule="evenodd" clip-rule="evenodd" d="M13.815 4.64831C14.1933 4.26998 14.8067 4.26998 15.185 4.6483L20.3517 9.81492C20.5334 9.9966 20.6354 10.243 20.6354 10.4999C20.6354 10.7569 20.5334 11.0033 20.3517 11.1849L15.185 16.3517C14.8067 16.73 14.1933 16.73 13.815 16.3517C13.4367 15.9733 13.4367 15.36 13.815 14.9816L17.3279 11.4687L1.58334 11.4687C1.04832 11.4687 0.614594 11.035 0.614594 10.4999C0.614594 9.96491 1.04832 9.53118 1.58334 9.53118L17.3279 9.53118L13.815 6.01833C13.4367 5.64001 13.4367 5.02663 13.815 4.64831Z" fill="#00B396"/>
</svg>
