<svg viewBox="0 0 18 16" fill="none" xmlns="http://www.w3.org/2000/svg">
<path opacity="0.4" d="M0.942405 7.34658L15.6899 0.973075C16.3834 0.673353 17.1348 1.25658 17.0166 2.00278L15.0002 14.7256C14.8757 15.5115 13.903 15.812 13.3568 15.2335L10.0478 11.7283C9.39886 11.0409 9.34801 9.98307 9.92801 9.23661L12.2644 6.22961C12.398 6.05771 12.1871 5.83157 12.0063 5.95285L7.36094 9.06918C6.57264 9.59801 5.61616 9.81555 4.67668 9.67968L1.18541 9.17474C0.229008 9.03642 0.0553467 7.72994 0.942405 7.34658Z" fill="#A7FFFA"/>
<path fill-rule="evenodd" clip-rule="evenodd" d="M16.7689 1.19659L12.2054 5.94332C12.1485 5.91087 12.0752 5.90663 12.0063 5.95285L7.36097 9.06918C6.57267 9.59801 5.61619 9.81555 4.67671 9.67968L1.18544 9.17474C0.229039 9.03642 0.0553772 7.72994 0.942436 7.34658L15.6899 0.973075C16.0895 0.800393 16.5083 0.920796 16.7689 1.19659Z" fill="#A7FFFA"/>
</svg>
