<svg width="22" height="22" viewBox="0 0 22 22" fill="none" xmlns="http://www.w3.org/2000/svg">
<path opacity="0.4" d="M21.1765 10.5882C21.1765 16.436 16.436 21.1765 10.5882 21.1765C4.74051 21.1765 0 16.436 0 10.5882C0 4.74051 4.74051 0 10.5882 0C16.436 0 21.1765 4.74051 21.1765 10.5882Z" fill="#A7FFFA"/>
<path fill-rule="evenodd" clip-rule="evenodd" d="M15.9 15.2118C15.6369 15.5626 15.1391 15.6337 14.7883 15.3706L11.8236 13.1471C11.353 12.7941 10.7059 12.7941 10.2353 13.1471L7.27063 15.3706C6.91977 15.6337 6.42202 15.5626 6.15887 15.2118C5.89572 14.8609 5.96683 14.3631 6.31769 14.1L9.2824 11.8765C10.3177 11.1 11.7412 11.1 12.7765 11.8765L15.7412 14.1C16.0921 14.3631 16.1632 14.8609 15.9 15.2118Z" fill="#A7FFFA"/>
<path fill-rule="evenodd" clip-rule="evenodd" d="M15.9 9.91765C15.6369 10.2685 15.1391 10.3396 14.7883 10.0765L11.8236 7.85294C11.353 7.5 10.7059 7.5 10.2353 7.85294L7.27063 10.0765C6.91977 10.3396 6.42202 10.2685 6.15887 9.91765C5.89572 9.56678 5.96683 9.06903 6.31769 8.80588L9.2824 6.58235C10.3177 5.80588 11.7412 5.80588 12.7765 6.58235L15.7412 8.80588C16.0921 9.06903 16.1632 9.56678 15.9 9.91765Z" fill="#A7FFFA"/>
</svg>
