<svg width="11" height="10" viewBox="0 0 11 10" fill="none" xmlns="http://www.w3.org/2000/svg">
<path fill-rule="evenodd" clip-rule="evenodd" d="M10.4588 9.24106C10.1957 9.59192 9.69791 9.66303 9.34704 9.39988L6.38234 7.17636C5.91175 6.82341 5.26469 6.82341 4.7941 7.17636L1.8294 9.39988C1.47853 9.66303 0.980779 9.59192 0.717631 9.24106C0.454485 8.8902 0.525592 8.39244 0.876456 8.1293L3.84116 5.90577C4.87645 5.1293 6.29998 5.1293 7.33528 5.90577L10.3 8.1293C10.6508 8.39244 10.722 8.8902 10.4588 9.24106Z" fill="#A7FFFA"/>
<path fill-rule="evenodd" clip-rule="evenodd" d="M10.4588 3.94694C10.1957 4.29781 9.69791 4.36891 9.34704 4.10577L6.38234 1.88224C5.91175 1.5293 5.26469 1.5293 4.7941 1.88224L1.8294 4.10577C1.47853 4.36891 0.980779 4.29781 0.717631 3.94694C0.454485 3.59608 0.525592 3.09833 0.876456 2.83518L3.84116 0.61165C4.87645 -0.164821 6.29998 -0.164821 7.33528 0.61165L10.3 2.83518C10.6508 3.09833 10.722 3.59608 10.4588 3.94694Z" fill="#A7FFFA"/>
</svg>
